<svg xmlns="http://www.w3.org/2000/svg" width="298" height="50" viewBox="0 0 298 50"><defs><style>.a{fill:#474747;font-size:40px;font-family:GoogleSans-BoldItalic, Google Sans;font-weight:700;font-style:italic;}.b{fill:#f15b2d;}.c{fill:#fff;}</style></defs><g transform="translate(0)"><text class="a" transform="translate(111 39)"><tspan x="0" y="0">Classified</tspan></text><g transform="translate(1820 418)"><path class="b" d="M109.177,26.689a23.192,23.192,0,1,1-46.377,0,23.192,23.192,0,1,1,46.377,0Z" transform="translate(-1835.623 -420.1)"/><path class="c" d="M86.4,37.454a4.772,4.772,0,0,1-3.518-1.279l-.32-.24h0A5.848,5.848,0,0,1,80.8,31.857a6.534,6.534,0,0,1,1.839-4.318h0A5.337,5.337,0,0,1,86.317,26.1h0a5.3,5.3,0,0,1,3.438,1.2,5.55,5.55,0,0,1,1.919,3.039h0l.08.24v.24a.481.481,0,0,1-.08.32.779.779,0,0,1-.8.64H83.439a.87.87,0,0,1-.8-.56c0,.16-.08.4-.08.56A3.555,3.555,0,0,0,83.6,34.416a3.626,3.626,0,0,0,2.639,1.119,3.352,3.352,0,0,0,2.239-.8A3.657,3.657,0,0,0,89.6,33.376h0a.935.935,0,0,1,.88-.64h.24a.857.857,0,0,1,.8.8.721.721,0,0,1-.08.4,5.2,5.2,0,0,1-1.679,2.239A4.857,4.857,0,0,1,86.4,37.454Zm0-9.435a3.626,3.626,0,0,0-2.639,1.119,6.1,6.1,0,0,0-.64.88.6.6,0,0,1,.4-.08H89.6a4.208,4.208,0,0,0-.96-1.119A3.352,3.352,0,0,0,86.4,28.019Z" transform="translate(-1839.23 -424.709)"/><path class="c" d="M101.457,37.154A6.2,6.2,0,0,1,95.3,30.837a7.879,7.879,0,0,1,.16-1.359h0a6.012,6.012,0,0,1,2.159-3.518,5.719,5.719,0,0,1,3.918-1.359,5.832,5.832,0,0,1,3.918,1.359l.24.16.08.08v-.64h0a.882.882,0,0,1,.96-.96h0a.924.924,0,0,1,.96.96h0V36.114h0a.924.924,0,0,1-.96.96h-.08a.924.924,0,0,1-.96-.96h0v-.64A6.053,6.053,0,0,1,101.457,37.154Zm0-10.395a4.159,4.159,0,1,0,4.078,4.158A4.014,4.014,0,0,0,101.457,26.759Z" transform="translate(-1842.136 -424.408)"/><path class="c" d="M117.858,33.552a3.739,3.739,0,0,1-2.159-1.519,4.307,4.307,0,0,1-.88-2.559V17.8h0a.9.9,0,0,0-.96-.8h0c-.56,0-.96.32-.96.8h0V29.394a6.189,6.189,0,0,0,4.8,6.157h0l.4.08.24.08a13.928,13.928,0,0,0,.4-1.759A4.655,4.655,0,0,0,117.858,33.552Z" transform="translate(-1845.662 -422.885)"/><path class="c" d="M93.358,47.377a2.316,2.316,0,0,1-1.839-.8,2.6,2.6,0,0,1-.8-1.839,2.316,2.316,0,0,1,.8-1.839,2.6,2.6,0,0,1,1.839-.8,2.633,2.633,0,0,1,1.519.48,2.207,2.207,0,0,1,.96,1.279h0v.08a.415.415,0,0,1-.16.32.481.481,0,0,1-.32.08.44.44,0,0,1-.4-.24h0v-.16a1.637,1.637,0,0,0-.64-.64,1.679,1.679,0,1,0,0,2.879,1.411,1.411,0,0,0,.64-.72V45.3h0a.44.44,0,0,1,.4-.24h0a.606.606,0,0,1,.32.16.415.415,0,0,1,.16.32v.08h0a2.207,2.207,0,0,1-.96,1.279,2.46,2.46,0,0,1-1.519.48Zm5.677,0a2.178,2.178,0,0,1-1.6-.56,2.652,2.652,0,0,1-.8-1.119h0a2.875,2.875,0,0,1-.16-.88,1.361,1.361,0,0,1,.08-.56v-.08h0v-.24c0-.08,0-.08.08-.16h0v-.16h0a2.5,2.5,0,0,1,.72-.88,2.444,2.444,0,0,1,1.6-.56,2.316,2.316,0,0,1,1.839.8,2.6,2.6,0,0,1,.8,1.839,2.316,2.316,0,0,1-.8,1.839,2.351,2.351,0,0,1-1.759.72Zm-1.6-2c.08.32.32.48.56.72a1.607,1.607,0,0,0,1.039.32,1.679,1.679,0,1,0,0-3.358,1.607,1.607,0,0,0-1.039.32,1.628,1.628,0,0,0-.48.56h0v.16a1.014,1.014,0,0,0-.08.48A2.443,2.443,0,0,0,97.436,45.378ZM89.36,47.3a.727.727,0,0,1-.64-.32c-.16-.24-.32-.4-.32-.64a.977.977,0,0,1,.32-.72.908.908,0,0,1,.64-.24,1.29,1.29,0,0,1,.72.24.977.977,0,0,1,.24.72.908.908,0,0,1-.24.64A.977.977,0,0,1,89.36,47.3Zm16.552-.08a.44.44,0,0,1-.4-.24V44.259a1.2,1.2,0,1,0-2.4,0v2.559c0,.08-.08.24-.08.32a.415.415,0,0,1-.32.16.378.378,0,0,1-.4-.4V44.339a2.048,2.048,0,0,1,2-2.079,2.087,2.087,0,0,1,1.6.8,2.087,2.087,0,0,1,1.6-.8,2.048,2.048,0,0,1,2,2.079v2.479a.4.4,0,1,1-.8,0V44.259a1.2,1.2,0,1,0-2.4,0v2.559a.481.481,0,0,1-.08.32A.6.6,0,0,1,105.911,47.218Z" transform="translate(-1840.753 -427.915)"/><path d="M53.26,37.374a.845.845,0,0,1-.96-.72h0V31.217a6.08,6.08,0,0,1,1.359-3.838A5.385,5.385,0,0,1,57.018,25.3h.16a.726.726,0,0,1,.56.24.977.977,0,0,1,.24.72c0,.32-.08.8-.88.96a3.542,3.542,0,0,0-2.079,1.439,4.067,4.067,0,0,0-.8,2.559v5.437h0A.907.907,0,0,1,53.26,37.374Z" transform="translate(-1833.519 -424.549)"/><path d="M17.42,43.411c-.24,0-.72-.08-.72-.96,0-.32.08-.8.88-.96a3.739,3.739,0,0,0,2.159-1.519,4.067,4.067,0,0,0,.8-2.559V26.22h0c0-.24.16-.72.88-.72.56,0,.88.24.88.72h0V37.494a6.08,6.08,0,0,1-1.359,3.838,5.752,5.752,0,0,1-3.358,2.079Z" transform="translate(-1826.385 -424.589)"/><ellipse cx="0.88" cy="0.96" rx="0.88" ry="0.96" transform="translate(-1805.847 -401.967)"/><path d="M41.776,37.715a4.8,4.8,0,0,1-3.358-1.2l-.16-.16h0a5.483,5.483,0,0,1-1.759-4,5.972,5.972,0,0,1,1.759-4h0A5.445,5.445,0,0,1,41.856,27a5.087,5.087,0,0,1,3.358,1.2,5.265,5.265,0,0,1,1.839,3.039h0v.24a.822.822,0,0,1-.8.88h-7.2a.814.814,0,0,1-.72-.88V31.4a3.893,3.893,0,0,0-.08.96,3.688,3.688,0,0,0,3.6,3.758,3.74,3.74,0,0,0,2.239-.72,2.15,2.15,0,0,0,1.039-1.439.954.954,0,0,1,.88-.8.779.779,0,0,1,.72.32.728.728,0,0,1,.08.64,3.845,3.845,0,0,1-1.6,2.559A6.884,6.884,0,0,1,41.776,37.715Zm0-9.116a3.182,3.182,0,0,0-2.559,1.119,5.22,5.22,0,0,0-.8,1.2.727.727,0,0,1,.64-.32h6a2.989,2.989,0,0,0-1.039-1.2A3.5,3.5,0,0,0,41.776,28.6Z" transform="translate(-1830.351 -424.889)"/><path d="M28.36,36.853q-.84,0-.96-.96h0V23.66h0a.924.924,0,0,1,.96-.96q.84,0,.96.96h0v6.717l1.759-1.759a1.191,1.191,0,0,1,.72-.32.727.727,0,0,1,.64.32.987.987,0,0,1,.32.64.727.727,0,0,1-.32.64l-2.159,2.159,3.118,3.2a1.191,1.191,0,0,1,.32.72.727.727,0,0,1-.32.64.987.987,0,0,1-.64.32.727.727,0,0,1-.64-.32h0l-2.8-2.879v2.319h0A.9.9,0,0,1,28.36,36.853Z" transform="translate(-1828.529 -424.028)"/><path d="M9.477,37.154A5.786,5.786,0,0,1,3.8,31.317a7,7,0,0,1,.16-1.279,5.445,5.445,0,0,1,2-3.278,5.37,5.37,0,0,1,3.6-1.279,5.094,5.094,0,0,1,3.6,1.279l.24.16h0a1.15,1.15,0,0,0,.24.16V26.2h0a.755.755,0,0,1,.8-.8h.08c.48,0,.72.32.8.8v10a.755.755,0,0,1-.8.8h-.08c-.48,0-.72-.32-.8-.8h0v-.56c0-.16,0-.16-.08-.24a.248.248,0,0,0-.16.08A5.2,5.2,0,0,1,9.477,37.154Zm0-9.835a4.027,4.027,0,0,0-4,4.078,4.079,4.079,0,0,0,4,4.078,4.027,4.027,0,0,0,4-4.078A3.977,3.977,0,0,0,9.477,27.319Z" transform="translate(-1823.8 -424.569)"/><path class="c" d="M76.774,29.314h0a6.332,6.332,0,0,1-6.237,6.4,6.317,6.317,0,1,1,4.238-10.955V18.039h0A.947.947,0,0,1,75.734,17h0a.947.947,0,0,1,.96,1.039h0l.08,11.275Zm-6.237-4.4a4.4,4.4,0,1,0,4.318,4.4A4.369,4.369,0,0,0,70.537,24.916Z" transform="translate(-1835.924 -422.885)"/></g></g></svg>