<svg xmlns="http://www.w3.org/2000/svg" width="44.904" height="65" viewBox="0 0 44.904 65"><g transform="translate(-164 -1890)"><g transform="translate(164 1893)"><path d="M41.758,61.965l-.049-.072-.127-.134-.224-.536L40.7,60.018l-.166-.67-.063-.107-.509-.429-.094-.134-.157-.3L39.6,58.21l-.433-.5-.067-.169-.013-.22.08-.665-.017-.25-.055-.2-.535-.982-.094-.1-.1-.059-.094-.151-.068-.183-.031-.169h.059l.076.062.072-.183.117-.2.159-.112.18.068-.122-.117-.094-.187-.054-.218v-.192l.085-.116.135-.125.09-.147-.041-.174.148-.174.028-.075-.041-.1.058-.1-.017-.088-.072-.068L38.88,52.3l.063-.2-.037-.023-.13.358-.113.147-.163,0-.076-.121.028-.165.054-.165L38.5,52h-.067l-.05.178-.09-.013-.089-.126-.037-.151.031-.233.087-.057.126-.027.148-.138-.059-.072-.161.116-.068-.085.059-.156.229-.094v-.072l-.45.035-.342.107-.09-.088.018-.246.1-.224.174-.088-.076-.108.041-.1.1-.081.13-.062v-.075l-.1.008-.089.049-.077.072-.058.094-.054-.129-.046-.215-.045-.411-.028-.1-.139-.156-.031-.094v-.393l-.248-1.062-.018-.362.1.044-.017-.116-.087.018-.071.134v.2H37.1l-.1-.178-.1-.228-.058-.255-.009-.259.045-.16.176-.179.05-.094-.013-.169L37,46.113l-.1-.044-.067-.059-.031-.259.17-.125.253-.075.211-.112.1-.183.224-.741h-.2l-.022.157-.094.4.018.081-.068.059-.111.121-.144.12-.172.059-.031.053-.239.13-.071.1.026.165.1.079.122.046.089.066,0,.2-.166.125-.211-.018-.149-.231-.17-1.193-.1-.38-.657-1.29-1.241-1.731-.311-.125-.172-.157-.135-.187L33.574,41l-.076.04-.063-.049-.046-.107-.018-.134.024-.125.089-.13.063-.3.153-.442.005-.25h-.072l-.031.2-.166.545-.1.116-.211.066-.135.17-.05.231.031.251-.148-.112-.144-.068-.163-.031-.211-.009v.077l.207.062.022.1-.094.09-.17.044-.5.009.176.059.157.072.076.062-.026.151-.126.09-.163.04h-.166l-.3-.062-.077.009-.013-.04v-.187l-.122-.046-.143-.017-.333-.005v.068l.121.107.046.116-.068.077-.225-.009V41.8l.564.147.256.108.109.209-.031.134-.077.147-.113.4-.2.187-.18.148-.257.072-.476.1-.37-.183-.194-.281-.1-.446-.1-.125-.1-.183-.107-.321-.081-.09-.144.046.144.147.135.29.076.3-.022.2-.2.1-.315.049L28.5,42.94l-.131-.107-.058-.143-.266-.192-.063-.094-.031-.094-.139-.192-.077-.3-.107-.044-.283.022L27.3,41.74l-.117-.376-.076-.062-.163-.094-.063-.187-.139-.2-.031-.072-.014-.107-.117-.286L26.51,40l-.076-.182-.09-.156-.072-.174-.026-.237-.05-.13-.751-1.017-.1-.277-.022-.121v-.116l.111-.639.014-.433.054-.231.107-.2.081-.2-.041-.2h.063l-.161-.343-.009-.138.107-.09L25.57,35.1l0-.053-.248.085-.161-.218-.094-.312-.028-.2.014-.615.08-.242.239-.147.568.005.229-.125,0-.389-.045-.143-.085-.062.085-.13.216-.138.1-.107-.1.107-.216.138-.085.13-.235,0-.026.044.085.1.176.139-.068.218-.17-.1-.109-.013-.184.112-.248.081-.139.094-.046-.036-.148-.415.041-.3.157-.246.243-.111-.076-.018-.054.018-.077-.1-.161.017-.355.148.054.147-.05.09-.117.044-.153.013-.161-.013L24.1,32.54l-.248-.157.076.161.14.107.157.062.161.027.36.013.081.086.022.942-.031.116-.077.062-.076.152L24.6,34.3l-.018.165-.324-.138-1.9-.371-.368-.134-.333-.22-.009.121.09.116L23,34.6l.152.125.09.13.063.129.085.1.307.068.27.133.152.055.634.072.081.066.283.433.046.174.031.371-.113-.165-.09-.094.05.205.041.62-.037.25-.261.375-.063.062-.117-.031-.022-.085.045-.1.094-.075v-.072h-.067l-.109.147-.107.1-.135.072-.185.044-.364-.013-.121.049-.046.174.009.066-.1.156-.166.1-.256-.121-.131-.125-.22-.17-.315-.07-.144.057-.109.072-.085.169h0l.085-.169.109-.072.144-.057.315.072.22.169.131.125.256.121.166-.1.1-.156.045.228.135.33.181.312.193.255.022.053-.013.121.028.075.1.027.143.125.041.075-.049.1-.149.072-.143-.018-.14-.035-.139.013-.185.231-.09.349-.117.29-.274.062.157.139-.041.138-.131.053-.117-.121L22.844,41l.144.107.274.094.189.094.09-.191.166.031.17.143.1.156.031.107.037.326.117.339.041.362-.028.075-.094.125L24,42.815l-.225.031-.089.059-.054.156-.113.58.026.044.126-.107.046-.068.009-.107L23.7,43.2l.018-.112.1-.143.144-.085.172-.027.184.036.347.213.174.3.118.349.161.362-.2-.075.005.237.067.187.194.371.049.209.009.218-.058.429-.311.8-.229.362-.189.044-.261.143-.1.09-.045.094-.022.143-.059.16-.279.488-.094.116-.107.048-.131-.031-.166-.07-.139-.094-.063-.081.058-.259.235-.5.041-.251-.113-.294-.022-.139.063-.325-.031-.13-.163-.04.041.215L23,46.618l.018.147.081.072.111.068.037.1-.013.081-.046.07-.126.148-.028.147-.085-.031-.035.022-.028.108-.031.321-.081.222-.174.268-.149.179-.045.182-.185.38-.041.192-.045.4-.09.389-.076.2-.1.139-.536.455-.135.094-.185.035-.2-.031-.364-.152-.17-.035-.157-.085-.041-.17.063-.134.166.036-.072-.147.059-.1.094-.094.054-.126-.045-.147-.055-.04-.17.424-.094.09-.09.031-.121.138-.09.046-.081-.018-.126-.107-.117-.014.067-.276.028-.563.1-.237.089-.075.225-.152.085-.125.046-.161.054-.254.089-.147.4-.362.17-.255.087-.04.215.081.2-.143.152-.233.072-.281-.031-.277-.17.451-.122.237-.139.1-.261.035-.157.094-.581.622-.068.107-.076.224-.126.191-.031.077-.05.048-.139.022-.1-.013-.311-.125.059-.147.009-.156.076-.125.09-.081.085-.04.063-.072.028-.161-.037-.312.046-.116.035-.156.09-.1.107-.049.09-.062.058-.125-.252.088-.122.179-.152.514-.085.116-.262.254-.058.09.022.468-.022.134-.144.125-.176-.062-.148-.178-.063-.2-.018-.1-.085-.237-.028-.125-.022-.769-.089-.428-.024-.264-.022-.1-.126-.2-.05-.1-.035-.134-.013-.111.049-.251.194-.477.8-1.16.054-.13.037-.125.058-.116-.148.081-.031.031-.311.317-.135.169-.054.165-.076.165-.168-.049-.292-.231.018.218.054.178.037.179-.037.222-.405.776.118.22.1.369.111.7.014.362-.031.179-.081.134-.163.088-.139-.017-.153-.04H17.25v.075l.207.09.172.111.117.161.041.246-.009.1-.05.187v.112l.041.094.131.205.081.2.094.116.054.134-.068.165-.072.026-.215.04-.248.224-.109.16-.089.055-.18.066-.1.018L17,50.681l-.049-.148-.122.031-.148.1-.122.053-.163-.009-.18-.04-.166-.066-.117-.094-.081-.192,0-.116.1-.178-.018-.1-.14-.2-.274.571.113.192.189.259.216.231.193.1.087.1-.1.205L16,51.529l-.239-.062-.121-.077h-.109l-.239.046-.026.057.107.277.018.09-.185.187L15,51.916l-.274-.419.013-.183-.107-.428.026-.237.077-.134.18-.211.076-.16.031-.174-.039-.75.072-.606.054-.211.233-.415.05-.228-.031-.218-.085-.218-.122-.2-.131-.152,0-.147.3-.389.076-.174.013-.222.031-.215.063-.205.094-.183-.107.081-.09.134-.135.286-.111.111-.037.094.09.242-.059.088-.189.143-.113.183.009.138.2.358.076.228,0,.237-.022.125-.1.2-.024.1-.08.661L14.865,49l-.184.1-.077-.161-.013-.464.028-.107.1-.218.009-.134-.44-1.036-.024-.213.046-.464-.014-.211-.094-.222h-.072l-.08.687.08,1.317H14.2l.009-.147.046-.134.08-.046.046.215.049.129.059.09.054.116-.009.152-.08.264-.05.048-.117.023-.014.107.063.107.037.116.117.255.072.094.018.072-.09.554-.1.12-.126.094-.131.121-.107.183-.009.147.031.17.028.254-.037.237-.094.2-.13.165-.355.3-.109.008-.248-.276-.054-.157-.013-.267.031-.469.05-.187.13-.317.022-.246-.039-.209-.181-.349L13,49.229h-.072l-.059.156.028.134.063.13L13,49.8v.165l-.035.094-.163.165-.1.125-.063.108-.157.384-.05.085-.049,0-.054-.138h-.064l.005.264.1.406-.039.255-.163.356.028.116.2.1-.113.129-.166.121-.193.085-.19.022-.184-.107-.059-.191.037-.189.1-.079.017-.117-.3-.848L11.33,50.9l-.041-.044-.09.057-.094.1-.041.094L11,51.154l-.126-.036-.215-.112-.1-.085-.041-.066-.243-.849-.018-.173.022-.215.1-.438.005-.241-.068-.218-.216-.3-.045-.165.059-.477-.031-.191.17-.224-.018-.25-.054-.205-.081-.174-.422-.554-.094-.218.139-.1-.157-.277-.054-.125L9.4,44.909v-.1l.026-.107.081-.139.018-.085-.041-.241-.181-.415-.085-.385-.117-.094-.3-.116.216-.147.058-.241-.039-.282-.1-.268-.121-.218-.037-.231-.035-.134-.117-.3-.024-.187.068-.143.107-.134.1-.16.046-.139.035-.205.018-.2-.022-.143-.113-.1-.27-.088-.113-.139-.207-.49-.1-.165-.185-.233-.039-.116.008-.205.09-.3.022-.54.135-.264.527-.558.261-.218.085-.1.05-.112v-.086l-.054-.048-.266.009-.17-.062-.68-.237-.161-.031-.131.017-.148.117-.076.04-.1-.005-.64-.205-.13-.116-.094-.2-.009-.229.09-.2.233-.376.472-1.25.024-.222-.131-.108-.126.1-.113.178-.122.044-.143-.281-.109-.049-.283-.2-.163-.174-.229-.41-.143-.156L5.633,32.3l-.193.022-.1-.04-.094-.1,0-.072.031-.081.017-.129-.049-.04-.1-.022-.09-.044-.017-.117.207-.96-.014-.1-.072-.161.005-.1.045-.112.144-.228L5.4,29.9v-.094l-.031-.191.031-.1.157-.121.189-.009.2.018.184-.04.131-.1.368-.362.094-.121.031-.187-.026-.228-.059-.2-.067-.125.121-.205.113-.148,0-.1L6.6,27.527l-.031-.134-.185-.156-.045-.12.013-.1.059-.218.013-.125-.045-.215,0-.1.058-.13.094-.094.216-.079.153-.072.031-.09.113-.165.031-.1-.024-.039-.022-.174-.017-.046-.055-.415-.224-.3-.32-.192L6.2,24.411l-.1.246-.148.224-.211.013-.482-.165L4.63,24.7l-.22-.048-.72-.572L1.138,22.752l-.283-.062-.018-.072L.747,22.46.625,22.31l-.013-.053v-.55L.585,21.64.44,21.5l-.094-.218-.161-.068L0,21.157l.054-.321.077-.192.13-.182L.305,20l.109-.044.121-.023.068-.1.013-.147.031-.126.063-.075.126.022.09-.191.135-.134.094-.139-.026-.2L1,18.475l-.045-.094L.9,18.328v-.049l.481-.263.18-.062.19.018.157.111.139.179.085.205.009.2.117,0,.41.112.161.013.09-.066.176-.313.337-.441.122-.246.028-.281.224-.282.117-.316.081-.7-.026-.6.094-.174.333-.059.157.04.305.121.351.1.107-.026L5.4,15.5l.117-.134.09-.035.342.013.292.055.585.218.581.057.076-.057.1-.233.063-.075L7.73,15.3l.126.057.666.233.248.017-.144-.228.18-.04.028-.1-.028-.143.009-.143.085-.116.364-.268.072-.1.022-.108-.022-.1-.072-.085-.472.022-.229-.031-.22-.213-.2-.014-.1-.026-.072-.059-.229-.286L7.7,13.444l-.009-.1-.028-.088-.1-.077,0-.066.166-.38L7.708,12.5l-.09-.138L7.5,12.253l-.117-.143-.085-.072L7,11.923l.009.187-.1.044-.181-.018-.076.014-.1.085-.17.192-.113.031-.2-.049L5.746,12.2l-.189-.09L5.143,12.1l-.2-.04-.094-.094-.077-.156-.261-.2-.1-.215-.37-.182-.135-.134-.041-.657-.256-.29L2.9,9.651l-.59-.683L2,8.807l-.433.125L1.4,9.025,1.21,9.11l-.18.009L.9,8.99.836,8.785.792,8.691l-.153-.17L.653,8.33.585,8.168.513,7.691.644,7.53l.18-.606.189-.362.244-.192.067-.205L1.31,6.048,1.2,5.95,1.161,5.9l-.014-.1.046-.116L1.3,5.329,1.382,5.2,1.7,5l.087-.077.13-.147.1-.04.2-.044.566-.192.17-.107.077-.161-.013-.388.035-.156L3.2,3.472l.148-.134.459-.285.072-.094.045-.1.055-.044.166.094.089,0,.172-.031.215.036L4.6,2.646,4.41,2.063,4.27,1.83,4.009,1.7,3.452,1.6l-.225-.1L3.154,1.5l-.031.072-.028.25-.045.062-.126-.036L2.849,1.71l-.009-.179.054-.143.126-.213.2-.692L3.289.33l.117-.2L3.532,0l.09.059.013.2L3.626.486,3.653.7l.131.143.341.107.159.072.126.147.121.1.185.2.194.134.22.094.081.009L5.418,1.7l.117.053.117.229.081.1.207.116.224.053-.041.09L6.1,2.428l.028.072.157.062-.013.187.058.081.225.116.13.1.024.134-.09.2-.126.108-.355.178-.072.081.17.12.819-.3.351.134.076.165.063.183L7.64,4.2l.163.075.152-.062L8.1,3.861,8.3,3.727l.266.049L8.99,4.2l.274.094L9.7,4.191l.193-.138-.05-.2-.107-.031-.113,0-.072-.072.037-.228-.09.057L9.4,3.6l-.077-.026-.063-.085-.09-.308-.237-.125L8.657,2.96l-.2-.215,0-.183.076-.2.122-.183.126-.116.157-.077.09.027.089.09.153.116.113.053.144.169.089.072.109.046.211.053.085.072.046.129-.031.094.013.072.163.072.229.068.071.075.005.147-.085.046-.14-.068-.113.014.009.29.063.173.194.326.072.169.081.653.072.191.121.139.644.281.144.094.1.134.063.205.081.1.342.156.235.273.174.12.2.09.159.018.157-.09.117-.107h.113l.148.218.139.018.055-.018.526-.044.14.044L14.456,7l.085.116.1.053.13-.026.068-.1.026-.138-.008-.143.08-.3.427-.352.081-.182L15.374,5.8l-.126-.005-.135.027-.1-.049V5.647l.107-.09.139-.072.118-.075L15.2,5.388l-.161-.077-.063-.133.1-.2.13-.088.068-.009.2.062.005-.053-.063-.125L15.4,4.441l.068-.088.211-.072.176.035.054.161-.013.455L15.9,5l.117.053.072.009.194-.017.089.008.113.094.059.161.045.174.076.147.126.178.014.134-.022.134.013.189.054.1.2.259.131.218.058.018.063-.027.068-.07.05-.009.139.178-.028.147-.139.112-.189.068.184.111.149.014.081.062-.046.254-.418.737-.035.263.18.965.22.54.1.42-.09.754-.018.8-.22.813-.013.107-.041.308.031.362.085.38.113.209.153.027.346-.139.368-.013,2.155.906,1.526.339.756.317.341.013.986-.211.8.072.391-.1.135.005.113.035.211.094.36.064.081-.005.058-.031.1-.112.05-.026.157.017.126.077.122.094.139.066.275.036,1.093-.152-.028.46.028-.46.085-.009L28.7,15.6l1.557-.25.54.018.122-.018.211-.112.1,0,.468.246,1.439.437.378.044.1-.013.2-.066.216-.04.166-.134.081-.036.17.014.068.079.067.121.159.13.161.039.248.009.229-.031.1-.1.05-.174.113,0,.211.088.068-.053.058-.13.063-.057.149-.022.468.044,1.04-.13.539.081.442-.138.315.013.311.075.261.1.076.062.094.152.059.059.076.022.14.009.121.072.131-.04.081.013.063.059.144.187.135.116.117.085.13.059.176.04.5.072.085.062.153.218.274.116.243.143.054.3.248.079v.036l.316.231.089.046.041.048-.081.077.239.1.09.088.076.17.031.187-.031.116-.135.209-.346.094-.594.2-.094-.014-.072-.031-.041-.053-.009-.081-.661-.4-.374-.125-.284.125-.049.179.041.187.126.343.017.169,0,.165-.022.165-.5,1.384-.094.411-.045.362-.05.161-.1.156L40,22.341l-.148.088-.122.121-.05.2.054.642-.035.3-.189.255-.248.116-.283.022-.81-.072-.013.125.22.362.009.143-.19-.075-.211-.147-.09-.081-.215.072-.031.187.1.424-.009.205-.212.9-.071.183-.122.081-.2-.049-.3-.3-.022-.094-.013-.241-.028-.066-.1-.005-.616-.134-.1.139.026.2.063.215.005.183-.113.164-.166.064-.189-.027-.176-.112-.09-.16-.17-.429-.1-.035-.045.125-.1.67-.076.222-.094.147-.14.095-.225.066-.4.049-.359-.031-.738-.161-.405.036-.118.272-.017.4-.1.428-.117.081-.18-.049.041-.244,0-.094-.005.094-.039.244-.163-.026-.17.072-.131.116-.1.138-.333.589L31,29.1l0,.143.113.244.041.134-.031.2-.194.576-.1.174-.181.09-.184.017-.153.055-.09.2.041.228.153.085.161.059.059.16-.085.17-.135-.009-.122.013-.035.255.045.183.283.527.072.187.081.343.09.174.08.075.172.1.063.1.022.081.045.259.131.446.1.215.127.094.126.031.031.062-.041.085-.1.094-.067.1.018.079.094.192.224,1.692.126.433.235.312.324.085.035-.343-.18-.879,0-.469.054-.244.107-.148.216-.009.185.148.144.2.076.143.035-.081.063.085v.183l.144.143h.022l.068.326.045.107.225.767.05.268.026.031.09.027.026.035.014.313.041.107.126.138.126.049.13.027.135.062.059.116v.1l.031.035.157-.088.059-.077.08-.187.087-.035.207.053.2-.062.261-.059.122-.075.072-.081.161-.152.068-.075L36.279,38l.009-.143.045-.039.148,0,.149-.161.039-.094-.035-.125-.126-.321-.144-.718-.144-.336-.054-.42.185-.518.283-.49.252-.339.157-.138.536-.233.157-.112.126-.138.22-.371.013-.415-.256-1.219-.013-.4.017-.228.063-.134.135-.009.122.147.122.2.405.46.152.075.225-.057.166-.148.319-.437.159-.178.409-.143.194.294.1.4.131.183.148-.143.122-.486.161-.094.2.107.022.228-.113.447.026.352.37,1.2.059.512.045.156.05.086.126.12.054.09.018.081-.018.147.013.072.05.066.126.1.041.055.009.094-.028.2V35.2l.05.174.045.1.009.107-.067.187-.176.362-.041.161-.009.415.248,1.486-.009.727.076.354.181.272.324.134.139.174.085.817.068.317.117.156.261.228.1.156.046.16.067.809-.022.6.035.178.126.326.014.178.566,3.406-.013.264-.113.053-.144-.005-.117.1.22.7.126.688.028.182.139.629.028.313L44.252,51.7l.139,2.472.028.264.1.518.346,1.053.037.209-.09.165-.189.2-.225.152-.2.013-.117-.129-.068-.215-.076-.415-.189-.42-.248-.053-.324.066-.414-.04-.22-.075-.1-.053-.081-.09-.067-.178-.022-.174-.041-.169-.126-.17-.316-.107-.368.446-.307,0-.161.022-.107.205-.131.441-.274.389-.05.183,0,.2.071.411-.013.2-.085.469.054.183.072.142.229.215.122.312.4.336-.063.4-.014.429.041.419.1.38.279.424.045.108.024.2.18.54.067.134.031.107-.022.112L41.821,62ZM18.942,43.8l.081.241-.081-.242-.05-.075Zm-.207-.411-.035.165ZM18.844,43.047Zm-.581-1.07.107-.046.094.036.068-.027.009-.147-.009.147-.068.027-.094-.036Zm.229-.259.05.075-.05-.077-.085-.026Zm-.009-.438-.3.2-.085.1v0l.085-.1.3-.2.05-.088Zm.059-.508-.144.075-.037.077v0l.037-.077.144-.075.017-.081Zm.017-.33-.067.125.067-.125.059-.027.1.005.135-.108-.135.108-.1-.005Zm-2.442-3.267.017.1.072.143.081.072.166.031.076.044.094.143.239.5.153.182.315.286.126.174.046.1.054.191.041.072.054.044.207.1.2.224.072.066.4.211.347-.059.166-.035.135-.072.229-.237.243-.336.135-.29.054-.066.189-.179.081-.125.163-.165.184-.1.072-.2.09-.161.477-.088.107.017.081.036.058.081.033.085.022.263.054.174.189.228.139.1.113.044.144-.018.094-.066.109-.174.071-.068.087-.169-.087.169-.071.068-.109.174-.094.066-.144.018-.113-.044-.139-.1-.189-.228-.054-.174-.022-.263-.031-.085-.059-.081-.081-.036-.107-.017-.477.088-.09.161-.072.2-.184.1-.163.165-.081.125-.189.179-.054.066-.135.29-.243.336-.229.237-.135.072-.166.035-.347.059-.4-.211-.072-.066-.2-.224-.207-.1-.054-.044-.041-.072-.054-.192-.046-.1-.126-.174-.315-.286-.153-.182-.239-.5-.094-.143-.076-.044-.166-.031-.081-.072-.072-.143-.017-.1Zm0-.657.143.187.122.013.166-.129.113-.027.139.053.054.1-.054-.1-.139-.053-.113.027-.166.129L16.26,36.7Zm-.509-.536.516.139.024.182-.024-.183ZM15.316,34.8l.143.4.244.286L16,35.473l-.292.008-.244-.285Zm0,0,.009-.334h0Zm.278-.182-.184-.866-.085-.215-.194-.178-.3-.161-.283-.031-.157.228-.063-.134.063.134.157-.228.283.031.3.161.193.178.087.215Zm-1.993-3.2.575.857.122.139.063.1.041.134.058.111.1.049.059.049-.059-.049-.1-.049-.058-.112-.041-.134-.063-.1-.122-.139-.575-.857-.1-.049-.126.009-.163.049.163-.049.126-.009Zm13.08.6-.149.018-.117.057-.041.09.041-.09.117-.057.149-.018.022-.053Zm-.163-.665-.072.142-.085.086.085-.086.072-.142.009-.077ZM12.5,30.843l.028.095.4.508h0l-.4-.51Zm14.1-.767-.2.518-.152.233-.018.094.018-.094.152-.233.2-.518.014-.156Zm.185-.7-.126.1-.094.139-.005.085.005-.085.094-.139.126-.1.131-.036.3.013.076-.008.19-.09.287.187.113.031.09-.049.135-.111.368-.51.2-.442.05-.259-.05.259-.2.442-.368.51-.135.111-.09.049-.113-.031-.287-.187-.19.09-.076.008-.3-.013Zm-10.627-.616.026.156.1.492-.1-.492ZM13,29.241l.018.085L13,29.241l-.139-.415Zm-.368-.512.229.1-.229-.1-.244-.053ZM10.187,27.7l-.046.231.046-.231v0Zm19.041-.469-.189.215-.157.1-.113.108-.085.25.085-.25.113-.108.157-.1.189-.215.072-.222Zm2.614.321.14.179-.139-.179-.1-.356ZM9.948,27.242l.2.25-.2-.251-.085-.263Zm21.763-.313.009-.134Zm-2.6-.035.072-.152Zm-11.573-.358.028.018ZM29.007,26.492Zm2.952-.367-.212.046-.067.031-.072.075,0,.178,0-.178.072-.075.067-.031.212-.046.063-.035Zm-22.929.064.176.088-.176-.09-.194-.013Zm20.228-.064-.22.077-.058.035.058-.035Zm-11.708,0,.046.112-.045-.112.017-.1ZM16.841,25l.009.09.36.393.135.116.013.286.176.044.035.1-.035-.1-.176-.044-.013-.286-.135-.116-.36-.393Zm15.326.514-.172.147-.265.16-.063.072.063-.07.265-.161.172-.147v-.072Zm-2.453.276.072.027.067-.009.028-.085-.028.085-.067.009-.072-.027-.13-.1h0Zm.148-.294v0Zm1.193-.919-.329.147-.143.362-.077.072-.076.125-.126.09-.166.057.166-.057.126-.09.076-.125.077-.072.143-.362.329-.147.211-.147Zm-14.268-.4.059.407Zm14.519-.1-.067.022-.109.116.109-.116.067-.022.05-.1Zm-.13-.629-.163.116.163-.116.013-.13Zm-.122-1.062-.1.2-.085.121-.094.094-.009.075.009-.075.094-.094.085-.121.1-.2.135-.352Zm-14.11-.339.028.13.009.2-.009-.2ZM31.1,20.935l-.1.178-.013.2-.031.059-.225.112.225-.112.031-.059.013-.2.1-.178.005-.081Zm-13.975.259.05.205ZM15.855,17.72l.014.09.233,1.152.085.209.131.259.1.107.166.112.287.152.176.165.081.1.063.112.05.2,0,.224,0-.224-.05-.2-.063-.112-.081-.1-.176-.165-.287-.152-.166-.112-.1-.107-.13-.259-.087-.211L15.87,17.81l-.013-.09.054-.892Zm14.462,2.67.072-.554Zm-1.9-3.6-.031.1-.1.156-.087.179-.107.384.107-.384.087-.179.1-.156.031-.1,0-.142h0ZM16.665,13.9l.087.58Zm20.8,40.428-.085-.059-.054-.085L37.282,54l-.031-.072.005-.075.148-.218.026-.108.005-.244-.05-.42-.207-.692.054-.384.1-.205.089-.094.107.009.14.111.05.134-.046.161-.072.165-.031.143.153-.183.059-.25-.009-.264-.072-.231.176-.022.157-.046v.22l.031.468.351.683L38.5,53l-.022.218-.089.437-.024.233-.085.183-.216.009-.243-.046-.189.027v.057l.045.077.005.081-.118.062ZM10.5,51.676l-.5-.585v-.044l.059-.062.063-.2,0-.2-.094-.345L10,50.082,9.939,49.9l.009-.1.117-.005.041.027.059.111.035.148.094.7.113.308.225.13.224.147.054.286-.117.182Zm26.447-.062.153-.862-.072-.531.035-.178.072-.134.229-.259.055.062.013.085.117.389.013.147-.031.165-.135.263-.076.362-.211.567-.081.1ZM22.317,50.538v-.482l.041-.25.094-.228.212-.4.166-.187.224-.053-.035.228-.244.411-.233.811-.09.117-.089.057Zm1.8-.17v-.075l.194-.059.076-.013-.13-.169L24.185,50l.063-.068-.018-.178.028-.107.08-.125.653-.447v.215l.072.121.054.165-.153.035-.094.237-.08-.053h-.068l-.081.209-.161.224-.189.152Zm-.984-.459-.077-.152v-.178l.054-.147.063-.112.055-.13.022-.218-.022-.33.035-.1.126-.1.437.464.122.276-.094.33-.207.125-.225.264-.157.075Zm-.608-.679.059-.222.126-.3.148-.237.131-.026-.063.259-.275.312-.067.218ZM25.516,49l-.081-.228.117-.3.18-.317.118-.285-.545.785-.152.031-.063-.205.041-.3.107-.3.139-.228-.107-.228.094-.384.405-.88.05-.169.031-.2v-.613l.058-.178-.076-.308-.022-.205.041-.125V44.3l-.109-.192-.117-.633-.107-.25-.157-.139L24.81,42.7l-.157-.046-.046-.384.024-.365.215-.857.068-.117.1-.075.166-.066.17-.04.189-.022.1.312.107.371.122.29.166.339.139.25.153.183.153.244.072.51.121.321.229.231.427.389.2.246-.193.991.009,1.683-.081.268-.513.793-.172.148-.072-.148-.22.233-.094.053-.252.433-.329.147Zm-1.346-.059-.045-.111-.009-.143.05-.094.346-.3-.058-.072-.419.246-.054.107h-.058l.017-.246L24,48.1l.113-.165.17-.066L24.4,47.8l.261-.29.122.005.08-.121.118-.112.113-.062.085.018-.194.639-.018-.17-.054-.12-.113.356-.058.4-.085.356-.207.246-.185.053Zm5.144-.951-.153-.04-.113-.075-.059-.152.279-.334.181-.277.067-.174.085-.5.009-.731.059-.813.166-.027.337.174.211.183.077.259.144.134.1.375.005.242.045.338-.157.317-.094.161-.189.371-.2.164-.14.095-.126.026-.107.183-.185.121Zm-1.161-.428.013-.29.068-.312.081-.233.058.075.054-.066.068.035.022.094v.563l-.072.246-.193.048Zm.562-1.116.059-.205.135.059.009.191-.028.224-.068.191-.111.1Zm-.387.066.031-.142.1-.179.059-.143.035-.473.059-.254.1-.17.072.081.054.156.041.192.008.215-.039.213-.364.567Zm-2.934-.883-.018-.336h.068l-.063-.187-.072-.406-.063-.187-.059-.04-.122-.005-.022-.138.022-.062.064-.022.117.053.13.143.14.254.107.29.022.246-.107-.215-.022-.075-.072.183.063.415-.063.183Zm8.171-1-.288-.419-.161-.416-.059-.334.225-.532.2-.107.864,1.129.068.447-.081.347-.464.055ZM25.574,43.9l.072.036.041.112.018.111,0,.205-.135.081-.058.068Zm4.473.228.094-.29.342-.147.4-.116.1.2-.094.241-.2.135-.2.088-.248.013ZM24.189,41.4l-.126-.116-.013-.1-.037-.108-.1-.066-.261-.081.08-.121.014-.094-.031-.29.009-.192.026-.182.072-.143.131-.053.333.057.157-.022.067-.143.081-.013h.383l.139.049.2.209.181.081.18.215.139.213-.152.031-.333-.066-.36-.022-.283.263-.149.053-.148.152-.018.259.05.165-.135.178ZM25.4,39.325l-.085-.036-.072-.079L25.13,39l-.087-.066-.1-.031-.072.057-.085.036-.109.013-.261.005-.1-.018-.152-.237.193-.336.324-.263.239-.022.207.174.37.455.215.165v.062L25.457,39l.031.066.094.09.077.1.049.1Zm-1.7-1.33-.049-.152h.374l.157-.062.063.1-.014.077-.148.147-.22.268-.081.048Zm.86-2.914L24.368,35l-.054.121-.176.085-.184-.053-.176-.13-.307-.316-.1-.152.028-.094h.257l.35.125.46.241.372.277.081.233Z" transform="translate(0 0)" fill="#fff"/></g><path d="M9.5,29.46l0,0C9.4,29.308,0,14.586,0,9.457a9.5,9.5,0,0,1,19,0c0,5.13-9.4,19.852-9.5,20Zm0-24.731a4.729,4.729,0,1,0,4.752,4.728A4.744,4.744,0,0,0,9.5,4.728Z" transform="translate(177 1890)" fill="#00c463"/></g></svg>