<svg xmlns="http://www.w3.org/2000/svg" width="55" height="55" viewBox="0 0 55 55"><defs><style>.a{fill:#ee3e54;}.b{fill:#f1bc19;}.c{fill:#fff944;}.d{fill:#fbcd59;}.e{fill:#fff;}.f{fill:#472b29;}.g{fill:#444b54;}.h{fill:#f2b630;}.i{fill:#71c2ff;}</style></defs><g transform="translate(-11 -11)"><path class="a" d="M12.41,27a1.41,1.41,0,1,0,1.41,1.41A1.41,1.41,0,0,0,12.41,27Z" transform="translate(0 -4.718)"/><path class="b" d="M76.705,12a.705.705,0,1,0,.705.705A.705.705,0,0,0,76.705,12Z" transform="translate(-19.167 -0.295)"/><path class="c" d="M39.09,13a26.09,26.09,0,1,0,26.09,26.09A26.09,26.09,0,0,0,39.09,13Z" transform="translate(-0.59 -0.59)"/><path class="b" d="M81.821,11a2.821,2.821,0,1,0,2.821,2.821A2.821,2.821,0,0,0,81.821,11Z" transform="translate(-20.051)"/><path class="a" d="M86.41,22a1.41,1.41,0,1,0,1.41,1.41A1.41,1.41,0,0,0,86.41,22Z" transform="translate(-21.821 -3.244)"/><path class="d" d="M60.359,69.577a1.41,1.41,0,1,0,1.41,1.41A1.41,1.41,0,0,0,60.359,69.577ZM13.821,59a2.821,2.821,0,1,0,2.821,2.821A2.821,2.821,0,0,0,13.821,59Z" transform="translate(0 -14.154)"/><path class="a" d="M24.41,85a1.41,1.41,0,1,0,1.41,1.41A1.41,1.41,0,0,0,24.41,85Z" transform="translate(-3.538 -21.821)"/><path class="e" d="M17.763,51a1.763,1.763,0,1,0,1.763,1.763A1.763,1.763,0,0,0,17.763,51Z" transform="translate(-1.474 -11.795)"/><path class="b" d="M20.705,66a.705.705,0,1,0,.705.705A.705.705,0,0,0,20.705,66Z" transform="translate(-2.654 -16.218)"/><path class="e" d="M79.705,33a.705.705,0,1,0,.705.705A.705.705,0,0,0,79.705,33Z" transform="translate(-20.051 -6.487)"/><g transform="translate(50.052 31.392)"><path class="f" d="M67.951,43.411a.353.353,0,0,1-.337-.25c-.059-.193-.123-.386-.191-.575a13.148,13.148,0,0,0-.991-2.138.352.352,0,1,1,.61-.353,13.79,13.79,0,0,1,1.045,2.252c.072.2.139.4.2.606a.353.353,0,0,1-.234.441A.347.347,0,0,1,67.951,43.411Z" transform="translate(-66.383 -39.919)"/></g><g transform="translate(24.708 24.385)"><path class="f" d="M30.794,41.44a.353.353,0,0,1-.344-.429,14.134,14.134,0,0,1,24.356-6.28q.3.342.585.7a.353.353,0,0,1-.556.434q-.268-.344-.556-.668a13.429,13.429,0,0,0-23.14,5.964A.353.353,0,0,1,30.794,41.44Z" transform="translate(-30.441 -29.982)"/></g><g transform="translate(24.589 36.048)"><path class="f" d="M44.183,63A14.067,14.067,0,0,1,30.277,51.358a.353.353,0,0,1,.287-.408.346.346,0,0,1,.408.286,13.414,13.414,0,0,0,26.62-2.3,13.525,13.525,0,0,0-.15-2.006.353.353,0,0,1,.7-.1A14.08,14.08,0,0,1,44.183,63Z" transform="translate(-30.272 -46.522)"/></g><g transform="translate(19.708 19.708)"><path class="b" d="M23.116,9.321l2.705-1.6a1.97,1.97,0,0,1,2.793.9l1.251,2.88a1.97,1.97,0,0,0,1.6,1.164l3.142.291a1.959,1.959,0,0,1,1.716,2.385l-.669,3.083a1.991,1.991,0,0,0,.611,1.891l2.356,2.094a1.976,1.976,0,0,1,0,2.938l-2.356,2.094a1.991,1.991,0,0,0-.611,1.891l.669,3.083A1.972,1.972,0,0,1,34.606,34.8l-3.142.291a1.97,1.97,0,0,0-1.6,1.164l-1.251,2.88a1.95,1.95,0,0,1-2.793.9l-2.705-1.6a2,2,0,0,0-1.978,0l-2.705,1.6a1.97,1.97,0,0,1-2.793-.9l-1.251-2.88a1.97,1.97,0,0,0-1.6-1.164L9.648,34.8a1.959,1.959,0,0,1-1.716-2.385L8.6,29.335a1.991,1.991,0,0,0-.611-1.891L5.6,25.35a1.976,1.976,0,0,1,0-2.938l2.356-2.094a1.991,1.991,0,0,0,.611-1.891L7.9,15.343a1.972,1.972,0,0,1,1.716-2.385l3.142-.291a1.97,1.97,0,0,0,1.6-1.164l1.251-2.88a1.95,1.95,0,0,1,2.793-.9l2.705,1.6A1.917,1.917,0,0,0,23.116,9.321Z" transform="translate(-2.801 -4.569)"/><path class="g" d="M12.882,27.261a.869.869,0,0,1-.844-.7,2.833,2.833,0,0,1,2.473-3.433l1.454-.145a.877.877,0,0,1,.175,1.745l-1.454.145a1.084,1.084,0,0,0-.785.436,1.172,1.172,0,0,0-.175.873.886.886,0,0,1-.669,1.047A.369.369,0,0,1,12.882,27.261Z" transform="translate(-7.78 -15.585)"/><path class="h" d="M108.631,43.3ZM106.1,35.5Z" transform="translate(-74.527 -24.464)"/><path class="e" d="M57.306,38.862a.846.846,0,0,1-.844-.7.862.862,0,0,1,.7-1.018A8.6,8.6,0,0,1,58.673,37a.873.873,0,1,1,0,1.745,5.265,5.265,0,0,0-1.164.116Z" transform="translate(-39.318 -25.528)"/><path class="e" d="M39.909,58.291a.837.837,0,0,1-.611-.262A7.812,7.812,0,0,1,37,52.473a7.671,7.671,0,0,1,1.309-4.334.879.879,0,1,1,1.454.989,6.025,6.025,0,0,0,.785,7.65.843.843,0,0,1,0,1.222A.825.825,0,0,1,39.909,58.291Z" transform="translate(-25.528 -33.147)"/><path class="g" d="M13.478,64.769a.9.9,0,0,1-.814-.524l-1.251-2.88a1.065,1.065,0,0,0-.9-.64l-3.142-.291a2.772,2.772,0,0,1-2.007-1.164A2.872,2.872,0,0,1,4.9,57l.669-3.083a1.1,1.1,0,0,0-.349-1.047L2.86,50.777a2.8,2.8,0,0,1-.96-2.124,2.849,2.849,0,0,1,.96-2.124l2.356-2.094a1.1,1.1,0,0,0,.349-1.047.879.879,0,0,1,1.716-.378,2.858,2.858,0,0,1-.873,2.734L4.053,47.839a1.082,1.082,0,0,0-.378.815.992.992,0,0,0,.378.815l2.356,2.094A2.816,2.816,0,0,1,7.282,54.3l-.7,3.054a1.147,1.147,0,0,0,.175.873,1.033,1.033,0,0,0,.785.436l3.142.291a2.84,2.84,0,0,1,2.327,1.687l1.251,2.88a.832.832,0,0,1-.465,1.134A.437.437,0,0,1,13.478,64.769Z" transform="translate(-0.638 -29.299)"/><path class="g" d="M57.648,109.308a3.067,3.067,0,0,1-1.425-.378l-2.705-1.6a1.076,1.076,0,0,0-1.105,0l-2.705,1.6a.873.873,0,1,1-.873-1.513l2.705-1.6a2.836,2.836,0,0,1,2.88,0l2.705,1.6A1.023,1.023,0,0,0,58,107.5a1.147,1.147,0,0,0,.669-.611l1.251-2.88a.867.867,0,1,1,1.6.669l-1.251,2.88a2.86,2.86,0,0,1-1.716,1.571A2.6,2.6,0,0,1,57.648,109.308Z" transform="translate(-33.609 -72.673)"/><path class="g" d="M104.857,47.048a.9.9,0,0,1-.873-.785.876.876,0,0,1,.785-.96,1.084,1.084,0,0,0,.785-.436,1.035,1.035,0,0,0,.175-.873l-.669-3.083a2.858,2.858,0,0,1,.873-2.734l2.356-2.094a1.082,1.082,0,0,0,.378-.814.992.992,0,0,0-.378-.814l-2.356-2.094a2.816,2.816,0,0,1-.873-2.734l.669-3.083a1.147,1.147,0,0,0-.175-.873,1.033,1.033,0,0,0-.785-.436.877.877,0,0,1,.175-1.745,2.772,2.772,0,0,1,2.007,1.164,2.872,2.872,0,0,1,.465,2.269L106.748,30a1.1,1.1,0,0,0,.349,1.047l2.356,2.094a2.8,2.8,0,0,1,.96,2.124,2.849,2.849,0,0,1-.96,2.124L107.1,39.485a1.1,1.1,0,0,0-.349,1.047l.669,3.083a2.833,2.833,0,0,1-2.473,3.433Z" transform="translate(-73.023 -15.94)"/><path class="g" d="M53.816,10.332A.9.9,0,0,1,53,9.808l-1.251-2.88a1.077,1.077,0,0,0-.669-.611,1.138,1.138,0,0,0-.873.087L47.5,8a2.836,2.836,0,0,1-2.88,0L41.89,6.4a1.023,1.023,0,0,0-.873-.087,1.147,1.147,0,0,0-.669.611.867.867,0,1,1-1.6-.669,2.746,2.746,0,0,1,1.716-1.6,2.782,2.782,0,0,1,2.3.262l2.705,1.6a1.076,1.076,0,0,0,1.105,0l2.705-1.6a2.9,2.9,0,0,1,2.3-.262A2.778,2.778,0,0,1,53.293,6.23l1.251,2.88a.832.832,0,0,1-.465,1.134C54.049,10.3,53.933,10.332,53.816,10.332Z" transform="translate(-26.723 -2.496)"/><path class="i" d="M114.356,115.326a.837.837,0,0,1-.611-.262l-3.083-3.054a.843.843,0,0,1,0-1.222.869.869,0,0,1,1.222,0l3.083,3.054a.873.873,0,0,1-.611,1.484Z" transform="translate(-77.576 -77.674)"/><path class="i" d="M113.873,5.072a.873.873,0,0,1-.611-1.484l2.327-2.327a.843.843,0,0,1,1.222,0,.843.843,0,0,1,0,1.222l-2.327,2.327A.837.837,0,0,1,113.873,5.072Z" transform="translate(-79.42 0)"/><path class="i" d="M4.578,5.451a.837.837,0,0,1-.611-.262L1.262,2.484a.843.843,0,0,1,0-1.222.844.844,0,0,1,1.222,0L5.189,3.967a.843.843,0,0,1,0,1.222A.792.792,0,0,1,4.578,5.451Z" transform="translate(0 0)"/><ellipse class="i" cx="1" cy="1.5" rx="1" ry="1.5" transform="translate(5.292 1.292)"/></g></g></svg>