<svg xmlns="http://www.w3.org/2000/svg" width="55" height="55" viewBox="0 0 55 55"><defs><style>.a{fill:#78a0cf;}.b{fill:#f1bc19;}.c{fill:#cee1f4;}.d{fill:#fbcd59;}.e{fill:#fff;}.f{fill:#fde751;}.g{fill:#472b29;}</style></defs><g transform="translate(-11 -11)"><path class="a" d="M12.41,27a1.41,1.41,0,1,0,1.41,1.41A1.41,1.41,0,0,0,12.41,27Z" transform="translate(0 -4.718)"/><path class="b" d="M76.705,12a.705.705,0,1,0,.705.705A.705.705,0,0,0,76.705,12Z" transform="translate(-19.167 -0.295)"/><path class="c" d="M39.09,13a26.09,26.09,0,1,0,26.09,26.09A26.09,26.09,0,0,0,39.09,13Z" transform="translate(-0.59 -0.59)"/><path class="b" d="M81.821,11a2.821,2.821,0,1,0,2.821,2.821A2.821,2.821,0,0,0,81.821,11Z" transform="translate(-20.051)"/><path class="a" d="M86.41,22a1.41,1.41,0,1,0,1.41,1.41A1.41,1.41,0,0,0,86.41,22Z" transform="translate(-21.821 -3.244)"/><path class="d" d="M60.359,69.577a1.41,1.41,0,1,0,1.41,1.41A1.41,1.41,0,0,0,60.359,69.577ZM13.821,59a2.821,2.821,0,1,0,2.821,2.821A2.821,2.821,0,0,0,13.821,59Z" transform="translate(0 -14.154)"/><path class="a" d="M24.41,85a1.41,1.41,0,1,0,1.41,1.41A1.41,1.41,0,0,0,24.41,85Z" transform="translate(-3.538 -21.821)"/><path class="e" d="M17.763,51a1.763,1.763,0,1,0,1.763,1.763A1.763,1.763,0,0,0,17.763,51Z" transform="translate(-1.474 -11.795)"/><path class="b" d="M20.705,66a.705.705,0,1,0,.705.705A.705.705,0,0,0,20.705,66Z" transform="translate(-2.654 -16.218)"/><path class="e" d="M79.705,33a.705.705,0,1,0,.705.705A.705.705,0,0,0,79.705,33Z" transform="translate(-20.051 -6.487)"/><path class="f" d="M43.589,23.435l4.944,10.088a.951.951,0,0,0,.716.522l11.039,1.6a.949.949,0,0,1,.529,1.618l-8,7.852a.949.949,0,0,0-.271.838l1.9,11.1a.95.95,0,0,1-1.381,1L43.18,52.808a.951.951,0,0,0-.89,0l-9.882,5.241a.95.95,0,0,1-1.381-1l1.9-11.1a.952.952,0,0,0-.271-.838l-8-7.852a.949.949,0,0,1,.529-1.618l11.039-1.6a.95.95,0,0,0,.716-.522l4.944-10.088A.95.95,0,0,1,43.589,23.435Z" transform="translate(-3.942 -3.51)"/><path class="g" d="M53.3,58.448a1.443,1.443,0,0,1-.677-.17l-9.882-5.241a.45.45,0,0,0-.427,0l-9.883,5.241a1.443,1.443,0,0,1-2.1-1.519l1.9-11.1a.455.455,0,0,0-.13-.4l-8-7.852a1.443,1.443,0,0,1,.8-2.459l11.039-1.6a.457.457,0,0,0,.344-.251l4.944-10.088a1.443,1.443,0,0,1,2.592,0h0L48.769,33.1a.457.457,0,0,0,.345.25l11.038,1.6a1.443,1.443,0,0,1,.8,2.459l-8,7.85a.456.456,0,0,0-.13.4l1.9,11.1A1.448,1.448,0,0,1,53.3,58.448ZM42.53,52a1.432,1.432,0,0,1,.676.169l9.882,5.241a.457.457,0,0,0,.664-.481l-1.9-11.1a1.448,1.448,0,0,1,.411-1.273l8-7.852a.456.456,0,0,0-.253-.776l-11.039-1.6a1.446,1.446,0,0,1-1.089-.793L42.941,23.445h0a.457.457,0,0,0-.82,0L37.176,33.533a1.444,1.444,0,0,1-1.088.793l-11.04,1.6a.456.456,0,0,0-.254.776l8,7.852a1.444,1.444,0,0,1,.411,1.274l-1.9,11.1a.457.457,0,0,0,.664.481l9.882-5.241A1.432,1.432,0,0,1,42.53,52Z" transform="translate(-3.736 -3.303)"/><g transform="translate(42.227 30.804)"><path class="g" d="M56.318,41.317a.178.178,0,0,1-.161-.1L55.3,39.335a.176.176,0,1,1,.321-.146l.855,1.878a.176.176,0,0,1-.16.249Z" transform="translate(-55.286 -39.085)"/></g><g transform="translate(38.768 23.082)"><path class="g" d="M51.71,31.061a.177.177,0,0,1-.161-.1L50.4,28.384a.177.177,0,0,1,.089-.233.174.174,0,0,1,.233.089l1.154,2.574a.177.177,0,0,1-.089.233A.185.185,0,0,1,51.71,31.061Z" transform="translate(-50.38 -28.134)"/></g><g transform="translate(31.262 47.476)"><path class="g" d="M39.911,65.839a.176.176,0,0,1-.083-.332l5.2-2.756a.176.176,0,1,1,.165.312l-5.2,2.756A.181.181,0,0,1,39.911,65.839Z" transform="translate(-39.735 -62.73)"/></g><g transform="translate(43.011 32.694)"><path class="g" d="M66.283,43.4H66.26l-9.71-1.282a.176.176,0,0,1,.047-.35l9.71,1.282a.176.176,0,0,1-.023.351Z" transform="translate(-56.397 -41.766)"/></g><g transform="translate(24.501 33.507)"><path class="g" d="M30.323,43.74a.176.176,0,0,1-.022-.351l3.715-.47a.182.182,0,0,1,.2.153.176.176,0,0,1-.153.2l-3.715.47Z" transform="translate(-30.147 -42.918)"/></g><g transform="translate(29.496 32.801)"><path class="g" d="M37.406,42.739a.176.176,0,0,1-.022-.351l3.716-.47a.179.179,0,0,1,.2.153.176.176,0,0,1-.153.2l-3.716.47Z" transform="translate(-37.23 -41.918)"/></g><g transform="translate(40.746 27.605)"><path class="g" d="M53.938,36.188a.177.177,0,0,1-.161-.1L53.2,34.8a.177.177,0,1,1,.322-.145L54.1,35.94a.177.177,0,0,1-.089.233A.185.185,0,0,1,53.938,36.188Z" transform="translate(-53.185 -34.549)"/></g><g transform="translate(31.433 40.938)"><path class="g" d="M40.154,55.831a.193.193,0,0,1-.035,0,.176.176,0,0,1-.138-.208l.411-2.022a.179.179,0,0,1,.208-.137.176.176,0,0,1,.138.208l-.411,2.022A.178.178,0,0,1,40.154,55.831Z" transform="translate(-39.978 -53.457)"/></g><g transform="translate(29.699 48.48)"><path class="g" d="M37.7,67.267a.215.215,0,0,1-.037,0,.176.176,0,0,1-.136-.209l.578-2.761a.178.178,0,0,1,.209-.137.176.176,0,0,1,.136.209l-.578,2.761A.177.177,0,0,1,37.7,67.267Z" transform="translate(-37.518 -64.154)"/></g><g transform="translate(24.804 34.231)"><path class="g" d="M37.857,51.038a.174.174,0,0,1-.121-.048l-7.1-6.74a.177.177,0,0,1,.243-.257l7.1,6.74a.176.176,0,0,1,.006.25A.174.174,0,0,1,37.857,51.038Z" transform="translate(-30.576 -43.945)"/></g><g transform="translate(30.753 45.039)"><path class="g" d="M39.19,61.006a.215.215,0,0,1-.037,0,.176.176,0,0,1-.136-.209l.289-1.381a.178.178,0,0,1,.209-.137.176.176,0,0,1,.136.209l-.289,1.381A.176.176,0,0,1,39.19,61.006Z" transform="translate(-39.013 -59.273)"/></g></g></svg>