<svg xmlns="http://www.w3.org/2000/svg" xmlns:xlink="http://www.w3.org/1999/xlink" width="668.085" height="513" viewBox="0 0 668.085 513"><defs><style>.a,.d{fill:#fff;}.a,.g,.h,.x{opacity:0.1;}.b{fill:none;stroke:#535461;stroke-miterlimit:10;stroke-width:2px;}.c,.h{fill:#6c63ff;}.e{opacity:0.25;}.f{fill:rgba(255,255,255,0.64);}.i{fill:#ffd037;}.j{fill:#f2f2f2;}.k,.q{opacity:0.2;}.l{fill:url(#a);}.m,.q{fill:#5a5773;}.n{fill:#474747;font-size:30px;font-family:GoogleSans-BoldItalic, Google Sans;font-weight:700;font-style:italic;}.o{fill:#f15b2d;}.p{fill:#00c463;}.r{fill:url(#b);}.s{fill:#ffe18e;}.t{fill:#0bc176;}.u{fill:#444053;}.v{fill:#a1616a;}.w{fill:#2a2a2a;}</style><linearGradient id="a" x1="0.5" y1="1" x2="0.5" gradientUnits="objectBoundingBox"><stop offset="0" stop-color="gray" stop-opacity="0.251"/><stop offset="0.54" stop-color="gray" stop-opacity="0.122"/><stop offset="1" stop-color="gray" stop-opacity="0.102"/></linearGradient><linearGradient id="b" x1="0.5" x2="0.5" xlink:href="#a"/></defs><g transform="translate(0.01 0.019)"><g transform="translate(-0.01 -0.019)"><path class="a" d="M736.616,370.55c-.6.437-1.149.862-1.736,1.275a58.531,58.531,0,0,1-6.781,4.136c-12.318,6.494-27.5,9.666-42.292,11.821-33.171,4.836-67.035,5.776-100.757,6.7-91.114,2.5-182.45,5-273.343-.766-35.912-2.274-72.614-6.081-105.156-17.752q-7-2.5-13.718-5.518a112.666,112.666,0,0,1-25.019-14.963c-6.805-5.554-12.324-11.935-15.622-19.189-6.877-15.107-3.238-32.075,4.615-46.883a145.7,145.7,0,0,1,11.007-17.22c6.063-8.337,12.749-16.436,18.848-24.767,21.7-29.615,35.864-67.083,15.831-97.459-5.758-8.727-14.077-16.388-18.77-25.5C177.738,112.811,178.2,99.871,180.1,87.3q.371-2.394.784-4.74c3.25-18.638,9.367-38.719,28.227-50.354,19.59-12.09,47.41-11.48,71.722-7.182,37.809,6.751,72.686,20.8,107.933,33.494S460.891,82.8,499.628,84.045c34.206,1.1,74.1-7.14,96.806-28.562,22.05-20.8,63.5-22.391,93.371-9.822,20.506,8.625,35.8,24.163,42.256,41.64a54.355,54.355,0,0,1,2.807,10.845,50.019,50.019,0,0,1,.5,10.229c-.09,1.688-.263,3.358-.5,5.01-4.992,34.487-40.922,61.691-62.762,92.5C661.434,220.929,653.9,239,661.237,255.231c11.193,24.725,50.115,33.518,73.619,51.917A55.306,55.306,0,0,1,746.408,319C757.81,335.374,753.6,357.49,736.616,370.55Z" transform="translate(-84.714 -21.751)"/><path class="b" d="M216.24,267.287s-27.532-48.792-69.023-62.846a84.862,84.862,0,0,1-43-32.165A142.451,142.451,0,0,1,91.53,149.46" transform="translate(-61.819 -72.837)"/><path class="c" d="M45.511,120.644C50.239,125.211,72.253,130,72.253,130s-5.387-21.858-10.127-26.449A11.928,11.928,0,1,0,45.51,120.668Z" transform="translate(-41.89 -53.052)"/><path class="c" d="M62.3,184.612c6.458,1.281,27.532-6.7,27.532-6.7s-16.43-15.418-22.894-16.7a11.927,11.927,0,1,0-4.639,23.4Z" transform="translate(-46.226 -77.463)"/><path class="c" d="M133.625,256.52c6.225-2.155,20.35-19.674,20.35-19.674s-21.954-5.022-28.173-2.867a11.929,11.929,0,1,0,7.781,22.541Z" transform="translate(-72.21 -106.553)"/><path class="c" d="M204.694,297.339c6.5-1.077,23.4-15.951,23.4-15.951s-20.787-8.661-27.287-7.589a11.929,11.929,0,1,0,3.884,23.54Z" transform="translate(-101.681 -122.718)"/><path class="c" d="M129.389,152.557c0,6.584-11.911,25.695-11.911,25.695s-11.935-19.1-11.941-25.683a11.929,11.929,0,1,1,23.851,0Z" transform="translate(-67.442 -69.189)"/><path class="c" d="M210.514,199.9c-1.969,6.285-19.057,20.949-19.057,20.949s-5.674-21.816-3.729-28.131a11.929,11.929,0,0,1,22.744,7.129Z" transform="translate(-100.276 -87.042)"/><path class="c" d="M282.027,259.482c-.874,6.53-15.239,23.869-15.239,23.869s-9.277-20.518-8.379-27.048a11.928,11.928,0,1,1,23.643,3.178Z" transform="translate(-128.791 -111.58)"/><path class="d" d="M45.511,120.644C50.239,125.211,72.253,130,72.253,130s-5.387-21.858-10.127-26.449A11.928,11.928,0,1,0,45.51,120.668Z" transform="translate(-41.89 -53.052)"/><path class="d" d="M62.3,184.612c6.458,1.281,27.532-6.7,27.532-6.7s-16.43-15.418-22.894-16.7a11.927,11.927,0,1,0-4.639,23.4Z" transform="translate(-46.226 -77.463)"/><path class="d" d="M133.625,256.52c6.225-2.155,20.35-19.674,20.35-19.674s-21.954-5.022-28.173-2.867a11.929,11.929,0,1,0,7.781,22.541Z" transform="translate(-72.21 -106.553)"/><path class="e" d="M204.694,297.339c6.5-1.077,23.4-15.951,23.4-15.951s-20.787-8.661-27.287-7.589a11.929,11.929,0,1,0,3.884,23.54Z" transform="translate(-101.681 -122.718)"/><path class="d" d="M129.389,152.557c0,6.584-11.911,25.695-11.911,25.695s-11.935-19.1-11.941-25.683a11.929,11.929,0,1,1,23.851,0Z" transform="translate(-67.442 -69.189)"/><path class="e" d="M210.514,199.9c-1.969,6.285-19.057,20.949-19.057,20.949s-5.674-21.816-3.729-28.131a11.929,11.929,0,0,1,22.744,7.129Z" transform="translate(-100.276 -87.042)"/><path class="e" d="M282.027,259.482c-.874,6.53-15.239,23.869-15.239,23.869s-9.277-20.518-8.379-27.048a11.928,11.928,0,1,1,23.643,3.178Z" transform="translate(-128.791 -111.58)"/><path class="b" d="M252.8,238.539s-5.387-55.771-37.636-85.434a84.836,84.836,0,0,1-26.275-46.829A142.539,142.539,0,0,1,186.54,80.27" transform="translate(-99.962 -45.059)"/><path class="f" d="M152.2,37.84c2.466,6.111,20.667,19.368,20.667,19.368s3.92-22.176,1.46-28.287a11.937,11.937,0,0,0-22.146,8.918Z" transform="translate(-85.819 -21.441)"/><path class="f" d="M141.609,103.14c5.387,3.789,27.874,5.028,27.874,5.028s-8.721-20.745-14.107-24.534a11.937,11.937,0,0,0-13.766,19.506Z" transform="translate(-79.895 -45.532)"/><path class="f" d="M177.8,197.783c6.584.557,26.6-9.732,26.6-9.732s-18.034-13.485-24.6-14.036a11.929,11.929,0,1,0-2,23.768Z" transform="translate(-91.961 -82.668)"/><path class="c" d="M226.158,263.863c6.38,1.652,27.862-5.1,27.862-5.1s-15.5-16.34-21.87-17.992a11.928,11.928,0,1,0-5.986,23.093Z" transform="translate(-112.282 -109.341)"/><path class="f" d="M215.856,101.187c-2.663,6.021-21.3,18.656-21.3,18.656s-3.172-22.289-.509-28.316a11.928,11.928,0,1,1,21.812,9.661Z" transform="translate(-102.548 -46.727)"/><path class="c" d="M267.62,176.834c-4.345,4.95-25.91,11.432-25.91,11.432s3.639-22.217,7.99-27.167a11.924,11.924,0,0,1,17.92,15.735Z" transform="translate(-122.112 -75.881)"/><path class="c" d="M311.165,260.6c-3.448,5.614-23.606,15.646-23.606,15.646s-.168-22.517,3.28-28.131a11.937,11.937,0,1,1,20.35,12.485Z" transform="translate(-140.518 -110.158)"/><ellipse class="g" cx="66.754" cy="8.691" rx="66.754" ry="8.691" transform="translate(177.548 492.399)"/><g transform="translate(87.485 461.766)"><ellipse class="h" cx="20.278" cy="3.471" rx="20.278" ry="3.471" transform="translate(1.702 35.182)"/><path class="d" d="M226.064,792.94s3.286,4.3-1.52,10.774-8.768,11.971-7.182,16.023c0,0,7.248-12.06,13.168-12.228S232.564,800.194,226.064,792.94Z" transform="translate(-199.679 -792.94)"/><path class="g" d="M226.2,792.94a5.284,5.284,0,0,1,.67,1.353c5.758,6.763,8.828,13.078,3.292,13.234-5.153.15-11.342,9.367-12.821,11.7a5.537,5.537,0,0,0,.174.533s7.248-12.06,13.168-12.228S232.7,800.194,226.2,792.94Z" transform="translate(-199.813 -792.94)"/><path class="i" d="M241.84,801.442c0,1.514-.168,2.741-.377,2.741s-.383-1.2-.383-2.741.215-.8.425-.8S241.84,799.928,241.84,801.442Z" transform="translate(-209.344 -795.96)"/><path class="i" d="M244.117,804.422c-1.329.724-2.49,1.161-2.592.976s.9-.922,2.227-1.646.8-.2.9,0S245.446,803.7,244.117,804.422Z" transform="translate(-209.52 -797.132)"/><path class="d" d="M198.168,792.94s-3.286,4.3,1.52,10.774,8.768,11.971,7.182,16.023c0,0-7.248-12.06-13.168-12.228S191.68,800.194,198.168,792.94Z" transform="translate(-189.152 -792.94)"/><path class="g" d="M198.159,792.94a5.284,5.284,0,0,0-.67,1.353c-5.758,6.763-8.828,13.078-3.292,13.234,5.159.15,11.342,9.367,12.821,11.7a4.256,4.256,0,0,1-.174.533s-7.248-12.06-13.168-12.228S191.671,800.194,198.159,792.94Z" transform="translate(-189.143 -792.94)"/><path class="i" d="M192.91,801.442c0,1.514.168,2.741.377,2.741s.383-1.2.383-2.741-.215-.8-.425-.8S192.91,799.928,192.91,801.442Z" transform="translate(-190.005 -795.96)"/><path class="i" d="M188.867,804.422c1.329.724,2.484,1.161,2.586.976s-.9-.922-2.227-1.646-.8-.2-.9,0S187.538,803.7,188.867,804.422Z" transform="translate(-188.057 -797.132)"/><path class="j" d="M194.66,833.466s9.193-.287,11.971-2.256,14.137-4.333,14.826-1.167,13.814,15.735,3.436,15.819-24.115-1.616-26.88-3.3S194.66,833.466,194.66,833.466Z" transform="translate(-190.708 -807.215)"/><path class="k" d="M225.071,848.086c-10.379.084-24.115-1.616-26.88-3.3-2.107-1.287-2.945-5.89-3.226-8.008h-.305s.6,7.41,3.346,9.1,16.5,3.382,26.88,3.3c2.993,0,4.034-1.089,3.974-2.669C228.447,847.476,227.3,848.068,225.071,848.086Z" transform="translate(-190.708 -810.54)"/><path class="d" d="M692.465,836.188s-25.306-1.526-22.319,16.208a4.314,4.314,0,0,0,2.244,4.555s.048-1.311,2.6-.868a11.588,11.588,0,0,0,2.747.132,5.686,5.686,0,0,0,3.364-1.388h0s7.111-2.933,9.876-14.562c0,0,2.047-2.538,1.969-3.19l-4.274,1.8s1.46,3.082.311,5.644c0,0-.138-5.53-.958-5.387-.168,0-2.221,1.065-2.221,1.065s2.514,5.387.6,9.265c0,0,.718-6.584-1.4-8.876l-2.993,1.754s2.933,5.542.946,10.067c0,0,.509-6.937-1.574-9.642l-2.723,2.125s2.753,5.465,1.071,9.217c0,0-.215-8.074-1.664-8.685,0,0-2.394,2.1-2.747,2.993,0,0,1.885,3.962.718,6.057,0,0-.718-5.387-1.311-5.387,0,0-2.394,3.591-2.622,5.985a13.032,13.032,0,0,1,2.047-6.35,7.145,7.145,0,0,0-3.633,1.885s.371-2.52,4.19-2.741c0,0,1.963-2.705,2.49-2.867,0,0-3.831-.323-6.153.706,0,0,2.041-2.394,6.853-1.3l2.687-2.191s-5.04-.694-7.182.072c0,0,2.466-2.107,7.907-.6l2.933-1.748a26.71,26.71,0,0,0-6.865-.6s2.705-1.46,7.721.12l2.095-.94s-3.154-.6-4.076-.712-.97-.353-.97-.353a10.929,10.929,0,0,1,5.919.658S692.543,836.469,692.465,836.188Z" transform="translate(-381.502 -810.29)"/><ellipse class="h" cx="17.908" cy="3.029" rx="17.908" ry="3.029" transform="translate(275.625 45.177)"/><path class="d" d="M625,837.777s-14.269-.862-12.569,9.14a2.442,2.442,0,0,0,1.269,2.568s0-.742,1.466-.491a6.98,6.98,0,0,0,1.544.078,3.273,3.273,0,0,0,1.9-.784h0s4.01-1.658,5.572-8.212c0,0,1.149-1.43,1.107-1.8L622.9,839.3a4.338,4.338,0,0,1,.174,3.184s-.078-3.118-.539-3.047c-.1,0-1.251.6-1.251.6s1.413,2.993.347,5.225c0,0,.4-3.729-.79-5.01l-1.694.994s1.652,3.124.533,5.674c0,0,.287-3.914-.892-5.435l-1.532,1.2s1.55,3.082.6,5.2c0,0-.126-4.555-.94-4.9a9.364,9.364,0,0,0-1.55,1.67s1.065,2.239.407,3.418c0,0-.407-3.035-.736-3.047a10.055,10.055,0,0,0-1.478,3.388,7.272,7.272,0,0,1,1.149-3.591,4.022,4.022,0,0,0-2.047,1.059s.209-1.425,2.394-1.544a9.065,9.065,0,0,1,1.4-1.616,8.769,8.769,0,0,0-3.471.4s1.155-1.341,3.867-.73l1.514-1.239a12.473,12.473,0,0,0-4.046.042s1.389-1.2,4.459-.323l1.646-.982a14.788,14.788,0,0,0-3.867-.335s1.526-.82,4.351.066l1.2-.527s-1.8-.353-2.292-.407-.551-.2-.551-.2a6.178,6.178,0,0,1,3.34.371A14.1,14.1,0,0,0,625,837.777Z" transform="translate(-358.375 -810.933)"/><ellipse class="h" cx="10.097" cy="1.706" rx="10.097" ry="1.706" transform="translate(246.704 37.719)"/><path class="d" d="M668.6,802.365s-17.22-1.041-15.191,11.031a2.945,2.945,0,0,0,1.532,3.1s0-.892,1.766-.6a8.5,8.5,0,0,0,1.867.09,3.944,3.944,0,0,0,2.292-.946h0s4.842-2,6.721-9.918c0,0,1.395-1.724,1.341-2.167L666.02,804.2a5.233,5.233,0,0,1,.216,3.843s-.1-3.765-.658-3.675c-.108,0-1.508.724-1.508.724s1.712,3.657.419,6.308c0,0,.491-4.5-.952-6.045l-2.047,1.2s2,3.771.646,6.853c0,0,.347-4.722-1.077-6.584L659.2,808.26s1.879,3.717.736,6.273c0,0-.15-5.495-1.137-5.914a11.27,11.27,0,0,0-1.867,2.017s1.287,2.7.485,4.124c0,0-.485-3.657-.886-3.675a12.016,12.016,0,0,0-1.8,4.088,8.8,8.8,0,0,1,1.389-4.321,4.865,4.865,0,0,0-2.472,1.281s.251-1.718,2.873-1.867a11.255,11.255,0,0,1,1.694-1.951,10.657,10.657,0,0,0-4.19.485s1.389-1.622,4.669-.886l1.832-1.49s-3.436-.473-4.89.048c0,0,1.676-1.43,5.387-.389l1.993-1.2a19.636,19.636,0,0,0-4.669-.4s1.837-.994,5.255.078l1.425-.634s-2.149-.425-2.777-.491-.658-.239-.658-.239a7.439,7.439,0,0,1,4.028.449A17.554,17.554,0,0,0,668.6,802.365Z" transform="translate(-374.815 -796.715)"/><ellipse class="h" cx="12.192" cy="2.059" rx="12.192" ry="2.059" transform="translate(269.736 18.776)"/></g><g transform="translate(81.855 57.195)"><path class="l" d="M748.062,409.759V117H178.65V392.965a113.363,113.363,0,0,0,25.138,15.37q6.739,3.106,13.766,5.68H741.269Z" transform="translate(-178.65 -117)"/><path class="d" d="M747.8,415.5V131H180.73V399.2a114.514,114.514,0,0,0,25.019,14.963q6.716,2.993,13.718,5.518H741.014Z" transform="translate(-179.485 -122.621)"/><rect class="m" width="567.06" height="15.047" transform="translate(1.251 0.832)"/><g transform="translate(40 22.802)"><text class="n" transform="translate(359.145 155.003)"><tspan x="0" y="0">Classified</tspan></text><g transform="translate(359.145 86.805)"><path class="o" d="M98.6,21.308a17.9,17.9,0,1,1-35.8,0,17.9,17.9,0,1,1,35.8,0Z" transform="translate(-26.384 -3.1)"/><path class="d" d="M85.121,34.864a3.683,3.683,0,0,1-2.716-.988l-.247-.185h0A4.514,4.514,0,0,1,80.8,30.544a5.044,5.044,0,0,1,1.42-3.333h0A4.12,4.12,0,0,1,85.059,26.1h0a4.09,4.09,0,0,1,2.654.926,4.284,4.284,0,0,1,1.481,2.345h0l.062.185v.185a.371.371,0,0,1-.062.247.6.6,0,0,1-.617.494h-5.74a.671.671,0,0,1-.617-.432c0,.123-.062.309-.062.432a2.744,2.744,0,0,0,.8,2.037A2.8,2.8,0,0,0,85,33.383a2.587,2.587,0,0,0,1.728-.617,2.823,2.823,0,0,0,.864-1.049h0a.722.722,0,0,1,.679-.494h.185a.661.661,0,0,1,.617.617.556.556,0,0,1-.062.309,4.012,4.012,0,0,1-1.3,1.728A3.749,3.749,0,0,1,85.121,34.864Zm0-7.283a2.8,2.8,0,0,0-2.037.864,4.711,4.711,0,0,0-.494.679.463.463,0,0,1,.309-.062h4.691a3.248,3.248,0,0,0-.741-.864A2.587,2.587,0,0,0,85.121,27.581Z" transform="translate(-33.274 -11.904)"/><path class="d" d="M100.053,34.29A4.782,4.782,0,0,1,95.3,29.414a6.081,6.081,0,0,1,.123-1.049h0a4.64,4.64,0,0,1,1.666-2.716,4.415,4.415,0,0,1,3.024-1.049,4.5,4.5,0,0,1,3.024,1.049l.185.123.062.062v-.494h0a.681.681,0,0,1,.741-.741h0a.713.713,0,0,1,.741.741h0v8.147h0a.713.713,0,0,1-.741.741h-.062a.713.713,0,0,1-.741-.741h0v-.494A4.672,4.672,0,0,1,100.053,34.29Zm0-8.024a3.21,3.21,0,1,0,3.148,3.21A3.1,3.1,0,0,0,100.053,26.266Z" transform="translate(-38.825 -11.33)"/><path class="d" d="M116.727,29.776A2.886,2.886,0,0,1,115.06,28.6a3.324,3.324,0,0,1-.679-1.975V17.617h0a.691.691,0,0,0-.741-.617h0c-.432,0-.741.247-.741.617h0v8.95a4.777,4.777,0,0,0,3.7,4.753h0l.309.062.185.062a10.75,10.75,0,0,0,.309-1.358A3.594,3.594,0,0,0,116.727,29.776Z" transform="translate(-45.562 -8.421)"/><path class="d" d="M92.227,46.174a1.787,1.787,0,0,1-1.42-.617,2.009,2.009,0,0,1-.617-1.42,1.787,1.787,0,0,1,.617-1.42,2.009,2.009,0,0,1,1.42-.617,2.032,2.032,0,0,1,1.173.37,1.7,1.7,0,0,1,.741.988h0v.062a.321.321,0,0,1-.123.247.371.371,0,0,1-.247.062.339.339,0,0,1-.309-.185h0V43.52a1.263,1.263,0,0,0-.494-.494,1.3,1.3,0,1,0,0,2.222,1.089,1.089,0,0,0,.494-.555v-.123h0a.339.339,0,0,1,.309-.185h0a.468.468,0,0,1,.247.123.321.321,0,0,1,.123.247v.062h0a1.7,1.7,0,0,1-.741.988,1.9,1.9,0,0,1-1.173.37Zm4.382,0a1.681,1.681,0,0,1-1.234-.432,2.047,2.047,0,0,1-.617-.864h0a2.219,2.219,0,0,1-.123-.679,1.05,1.05,0,0,1,.062-.432V43.7h0V43.52c0-.062,0-.062.062-.123h0v-.123h0a1.93,1.93,0,0,1,.555-.679,1.887,1.887,0,0,1,1.234-.432,1.787,1.787,0,0,1,1.42.617,2.009,2.009,0,0,1,.617,1.42,1.787,1.787,0,0,1-.617,1.42,1.815,1.815,0,0,1-1.358.555Zm-1.234-1.543c.062.247.247.37.432.555a1.241,1.241,0,0,0,.8.247,1.3,1.3,0,1,0,0-2.592,1.241,1.241,0,0,0-.8.247,1.256,1.256,0,0,0-.37.432h0v.123a.783.783,0,0,0-.062.37A1.886,1.886,0,0,0,95.375,44.631Zm-6.234,1.481a.561.561,0,0,1-.494-.247c-.123-.185-.247-.309-.247-.494a.754.754,0,0,1,.247-.555.7.7,0,0,1,.494-.185,1,1,0,0,1,.555.185.754.754,0,0,1,.185.555.7.7,0,0,1-.185.494A.754.754,0,0,1,89.141,46.112Zm12.776-.062a.339.339,0,0,1-.309-.185v-2.1a.926.926,0,1,0-1.852,0v1.975c0,.062-.062.185-.062.247a.321.321,0,0,1-.247.123.292.292,0,0,1-.309-.309V43.828a1.581,1.581,0,0,1,1.543-1.6,1.611,1.611,0,0,1,1.234.617,1.611,1.611,0,0,1,1.234-.617,1.581,1.581,0,0,1,1.543,1.6v1.913a.309.309,0,1,1-.617,0V43.766a.926.926,0,1,0-1.852,0v1.975a.371.371,0,0,1-.062.247A.467.467,0,0,1,101.917,46.05Z" transform="translate(-36.183 -18.029)"/><path d="M53.041,34.62a.653.653,0,0,1-.741-.555h0v-4.2A4.693,4.693,0,0,1,53.349,26.9a4.157,4.157,0,0,1,2.592-1.6h.123a.56.56,0,0,1,.432.185.754.754,0,0,1,.185.555c0,.247-.062.617-.679.741a2.734,2.734,0,0,0-1.6,1.111,3.139,3.139,0,0,0-.617,1.975v4.2h0A.7.7,0,0,1,53.041,34.62Z" transform="translate(-22.365 -11.598)"/><path d="M17.255,39.326c-.185,0-.555-.062-.555-.741,0-.247.062-.617.679-.741a2.886,2.886,0,0,0,1.666-1.173,3.139,3.139,0,0,0,.617-1.975V26.055h0c0-.185.123-.555.679-.555.432,0,.679.185.679.555h0v8.7a4.693,4.693,0,0,1-1.049,2.963,4.44,4.44,0,0,1-2.592,1.6Z" transform="translate(-8.738 -11.674)"/><ellipse cx="0.679" cy="0.741" rx="0.679" ry="0.741" transform="translate(10.925 11.604)"/><path d="M40.57,35.271a3.706,3.706,0,0,1-2.592-.926l-.123-.123h0A4.232,4.232,0,0,1,36.5,31.135a4.61,4.61,0,0,1,1.358-3.086h0A4.2,4.2,0,0,1,40.632,27a3.927,3.927,0,0,1,2.592.926,4.064,4.064,0,0,1,1.42,2.345h0v.185a.634.634,0,0,1-.617.679H38.472a.628.628,0,0,1-.555-.679v-.062a3.005,3.005,0,0,0-.062.741,2.846,2.846,0,0,0,2.777,2.9,2.887,2.887,0,0,0,1.728-.556,1.66,1.66,0,0,0,.8-1.111.736.736,0,0,1,.679-.617A.6.6,0,0,1,44.4,32a.562.562,0,0,1,.062.494,2.968,2.968,0,0,1-1.234,1.975A5.314,5.314,0,0,1,40.57,35.271Zm0-7.036A2.456,2.456,0,0,0,38.6,29.1a4.029,4.029,0,0,0-.617.926.561.561,0,0,1,.494-.247H43.1a2.307,2.307,0,0,0-.8-.926A2.7,2.7,0,0,0,40.57,28.234Z" transform="translate(-16.314 -12.249)"/><path d="M28.141,33.625q-.648,0-.741-.741h0V23.441h0a.713.713,0,0,1,.741-.741q.648,0,.741.741h0v5.185l1.358-1.358a.919.919,0,0,1,.555-.247.561.561,0,0,1,.494.247.762.762,0,0,1,.247.494.561.561,0,0,1-.247.494l-1.666,1.666,2.407,2.469a.919.919,0,0,1,.247.555.561.561,0,0,1-.247.494.762.762,0,0,1-.494.247.561.561,0,0,1-.494-.247h0l-2.16-2.222v1.79h0A.691.691,0,0,1,28.141,33.625Z" transform="translate(-12.834 -10.603)"/><path d="M8.182,34.473A4.466,4.466,0,0,1,3.8,29.967a5.4,5.4,0,0,1,.123-.988,4.2,4.2,0,0,1,1.543-2.531,4.145,4.145,0,0,1,2.777-.988,3.932,3.932,0,0,1,2.777.988l.185.123h0a.888.888,0,0,0,.185.123v-.679h0a.583.583,0,0,1,.617-.617h.062c.37,0,.555.247.617.617v7.715a.583.583,0,0,1-.617.617h-.062c-.37,0-.555-.247-.617-.617h0V33.3c0-.123,0-.123-.062-.185a.191.191,0,0,0-.123.062A4.015,4.015,0,0,1,8.182,34.473Zm0-7.592A3.109,3.109,0,0,0,5.1,30.029a3.149,3.149,0,0,0,3.086,3.148,3.109,3.109,0,0,0,3.086-3.148A3.07,3.07,0,0,0,8.182,26.881Z" transform="translate(-3.8 -11.636)"/><path class="d" d="M73.929,26.505h0a4.888,4.888,0,0,1-4.814,4.938,4.876,4.876,0,1,1,3.271-8.456V17.8h0a.731.731,0,0,1,.741-.8h0a.731.731,0,0,1,.741.8h0l.062,8.7ZM69.114,23.11a3.4,3.4,0,1,0,3.333,3.395A3.372,3.372,0,0,0,69.114,23.11Z" transform="translate(-26.958 -8.421)"/></g></g></g><g transform="translate(90.54 61.66)"><circle class="d" cx="3.89" cy="3.89" r="3.89"/><circle class="d" cx="3.89" cy="3.89" r="3.89" transform="translate(10.474)"/><circle class="d" cx="3.89" cy="3.89" r="3.89" transform="translate(20.949)"/></g><g transform="translate(98.321 106.143)"><rect class="p" width="93.67" height="58.859" transform="translate(129.696)"/><rect class="q" width="93.67" height="58.859"/><rect class="q" width="93.67" height="58.859" transform="translate(259.391)"/><rect class="q" width="93.67" height="58.859" transform="translate(0 84.147)"/><rect class="q" width="93.67" height="58.859" transform="translate(129.696 84.147)"/><rect class="q" width="93.67" height="58.859" transform="translate(259.391 84.147)"/><rect class="q" width="93.67" height="58.859" transform="translate(0 168.289)"/><rect class="q" width="93.67" height="58.859" transform="translate(129.696 168.289)"/><rect class="q" width="93.67" height="58.859" transform="translate(259.391 168.289)"/></g><g transform="translate(206.26 120.841)"><path class="r" d="M485.18,356.129s-16.825-30.753-13.988-35.756a68.149,68.149,0,0,0,4.926-12.246s6.213-4.25,6.213-5.985,4.92-5.752,7.512-7.5,1.293-10,0-11-3.346-4.5-3.346-4.5,1.8-5,0-6.5.263-2.993,0-4.5a60.394,60.394,0,0,1,0-7,11.279,11.279,0,0,0-6.62-4.788l-.192-.79-1.107-4.663s5.387-10.325-3.352-15.729a14.606,14.606,0,0,0-1.933-1.017,6.709,6.709,0,0,0-.048-.676,42.3,42.3,0,0,0-1.269-7.907c-.455-1.448-1.047-2.424-1.8-2.2a1.2,1.2,0,0,0-.491.281,5.461,5.461,0,0,0-.928,1.1h0a.245.245,0,0,1-.042.066,18.771,18.771,0,0,0-2.059,5.716,33.013,33.013,0,0,0-.6,3.591h0a19.748,19.748,0,0,0-1,2.221c-1.059,2.747-2.3,7.506-.042,11.025,1.915,2.993,4.495,7.1,6.368,10.1l.06.1.114.186-.2.126v.461l.174,2.52,1.448,21.775a9.249,9.249,0,0,0-1.329-.281,12.072,12.072,0,0,0-1.933-.126c-1.263-4.962-4.728-9.576-5.387-14.76a13.682,13.682,0,0,1-.1-1.562c.054-3.262.868-6.536.8-9.792,0-.6,0-1.2-.06-1.8h0a4.8,4.8,0,0,0-.048-.5,14.718,14.718,0,0,0-8-11.151c-1.5-.748-3.13-1.245-4.591-2.065-3.376-1.891-5.536-5.3-8.6-7.643-2.28-1.742-5.686-2.675-8.23-1.8a38,38,0,0,0-4,.826h0a36.123,36.123,0,0,0-9.163,3.807c-.389.233-.778.473-1.149.748a5.064,5.064,0,0,0-1.849,2.161,5.662,5.662,0,0,0-.287,2.328c0,.569,0,1.149.036,1.718-.168,9.576-10.486,16.986-11.336,26.335,0,.221-.036.443-.048.664v1.023h0v.748c.15,4.1,2.28,7.919,2.669,12,.036.365.054.724.06,1.089a18.1,18.1,0,0,1-1.059,5.495,16.081,16.081,0,0,0-3.717,1.508c-3.136,2.017-8.8,5.5-10.863,12.162a17.813,17.813,0,0,0-.784,5.339,111.478,111.478,0,0,1-1.748,19.063,35.631,35.631,0,0,1-1.1,4.686,1.1,1.1,0,0,0-.036.461l-1.245,16.16-.221,2.843-.311,4.046s.09.245.221.658a19.038,19.038,0,0,1,.491,1.867,10.042,10.042,0,0,1,.162,4.19,2.885,2.885,0,0,1-.874,1.538.646.646,0,0,0-.1.114,12.429,12.429,0,0,0-.946,4.118c-.108.838-.21,1.8-.311,2.789-.6,6.374-.97,15.915-1.2,23.8-.215,7.781-.293,13.928-.293,13.928a15.886,15.886,0,0,0,3.214,1.592c-.084.209-.174.425-.257.652a31.441,31.441,0,0,0-1.951,8.224c-.5,5.884,1.143,12.419,9.349,15.783a13.2,13.2,0,0,0,1.61.551,5.107,5.107,0,0,0,4.094-.251c0,.353.042.694.06,1.035.084,1.46.156,2.8.192,3.914.257,7,1.993,19.249,1.993,19.249s.6,5,.078,6.5,0,7.5,0,7.5,1.8,2.993,0,4.5-2.328,8.978-1.8,10a.338.338,0,0,1,.03.114c.4,2.484-1.837,39.389-1.837,39.389s-2.113,5.65-3.795,11.516c-1.64,5.71-2.873,11.623-1.353,12.731a12.7,12.7,0,0,0,4.734,1.281c0,.245-.036.491-.06.742-.215,2.639-.557,5.482-1.047,6.2-.712,1.018-1.46,8.906-1.826,13.168l-.036.473a44.112,44.112,0,0,0-1.927,5.59s-5.728,14.365-3.789,18.094a3.059,3.059,0,0,0,.712.88h0a1.615,1.615,0,0,0,.186.168c2.759,2.209,9.672,2.669,12.18,2.771l-.1,3.555v.132h3.262v-.09c0-.449.072-2.508.18-5.261,0-.491.036-1.006.06-1.532,0-.413.042-.832.06-1.263a22.144,22.144,0,0,0,1.418-7.99,35.06,35.06,0,0,1,1.257-9.265,25.736,25.736,0,0,1,1.658-4.519s1.017-5.387-.4-9.2a6.644,6.644,0,0,0-1.2-2.071v-1.2a34.53,34.53,0,0,1,.766-7.673.847.847,0,0,1,0-.12c.048-.209.1-.407.156-.6l.036-.132,1.059.036c3.25.09,5.638.09,5.638.09s2.592-13.251,2.334-19v-.778a73.993,73.993,0,0,1,1.568-13.473l2.089-20.26s-1.035-3.507,0-5.985c.64-1.544,1.963-4.411,2.885-6.386.431-.916.772-1.634.916-1.945l.084-.168a3.876,3.876,0,0,1-.922-.461h0c-.844-.563-1.6-1.664.928-3.286,3.884-2.5,2.592-8.75,2.592-8.75a4.492,4.492,0,0,1,.2-4.25c1.347-2,0-9.5,0-9.5a31.408,31.408,0,0,0,2.658-6.255c.964-2.993,3.4-17.627,4.549-24.683.377-2.316.6-3.813.6-3.813l.036.365.036.4h0l.323,3.334.042.443.6,6.3s1.2,16.567.449,23.061v.12a7.673,7.673,0,0,1-.437,1.969c-1.377,3.112-1.125,15.478-1.053,18.213v.551a11.013,11.013,0,0,0-.73,4.226h0a2.711,2.711,0,0,0,.473,1.257,3.184,3.184,0,0,1,.461,1.945v.06a7.063,7.063,0,0,1-.072.862,16.434,16.434,0,0,1-.91,3.388s-1.389,3.651-.862,5.56h0a1.759,1.759,0,0,0,.341.676,1.6,1.6,0,0,1,.2.718.257.257,0,0,0,0,.066c.485,4.028-.766,21.81-1.508,31.543-.3,3.843-.515,6.428-.515,6.428l-2.053,21.248.2.144c.233.168.67.455,1.257.8v.048l-.09.64c-.293,2.047-.688,4.429-1.119,6.249-.036.138-.066.269-.1.4a5.726,5.726,0,0,0-2.2.88c-4.357,7.739-2.43,13.874,0,15.658.688.5,1.155,1.909,1.466,3.657l.6,7.715v.886a2.3,2.3,0,0,0,.114.706l.186,2.34.251,3.256h1.987v-3.944h.108c3.136.108,8.194.239,10.4.066h.06a3.884,3.884,0,0,0,.6-.066,1.506,1.506,0,0,0,.347-.1c1.167-.563,4.076-8.81,1.454-10.684s-3.2-7.182-3.2-7.182c-.227-.694-.455-1.353-.688-1.981v-.407a32.921,32.921,0,0,1,.311-6.859,52.175,52.175,0,0,0,.682-8.194v-.76a10.211,10.211,0,0,0,1.335-.437l.1-.042a9.4,9.4,0,0,0,2.232-1.323l7.326-32.464.772-3.777,4.4-21.481s-1.55-7.5,0-8.745c.569-.455.724-2.394.688-4.639-.06-3.926-.688-8.864-.688-8.864s2.071-3.25,3.112-5.249,0-7.248,0-7.248l2.041-12.019s2.334-14.251,8.026-26.252c4.19-8.828,1.52-32.668-1.2-45.357-.072-.329-.144-.652-.215-.964v-.048c1.281-.634,2.849-1.4,4.525-2.2l.634-.3c2.125-1,4.375-2.029,6.392-2.885l.132-.054a44.647,44.647,0,0,1,4.447-1.664,7.466,7.466,0,0,1,1.365-.281C496.055,375.126,485.18,356.129,485.18,356.129ZM404.193,396.8h1.077c-.126.233-.245.473-.365.712-.072.144-.144.281-.21.425-.4.82-.76,1.658-1.059,2.478.12-.886.269-1.849.437-2.879C404.115,397.308,404.157,397.039,404.193,396.8Zm-2.909,15.6a.444.444,0,0,0,0-.084l-.09-.281c-.066-.192-.126-.383-.186-.6q.557-.168,1.131-.377h.078v.2c-.03.281-.066.563-.1.838h0a.6.6,0,0,1,0,.108,5.817,5.817,0,0,1-.078.658c-.054.431-.108.85-.156,1.251-.114-.377-.227-.748-.347-1.113a2.838,2.838,0,0,1-.251-.6Z" transform="translate(-386.5 -223.338)"/><path class="s" d="M530.164,261.008l-6.464,2.286-2.346-3.89c-1.8-2.993-4.285-7.087-6.123-10.061-3.244-5.231,1-13.2,1-13.2s.766-8,3.5-10.468,3.49,10.468,3.49,10.468c10.959,4.98,5.088,16.693,5.088,16.693l1.065,4.645Z" transform="translate(-437.691 -224.149)"/><path class="g" d="M535.09,282.407l-6.464,2.286-2.346-3.89v-.341a11.257,11.257,0,0,1,8.026-1.586Z" transform="translate(-442.617 -245.548)"/><path class="t" d="M523.56,309.122l3.238-2.741-1.622-24.671s8.379-5.734,14.58,3.238a62.956,62.956,0,0,0,0,6.979c.251,1.5-1.742,2.993,0,4.483s0,6.482,0,6.482,1.969,3.489,3.214,4.483,2.5,9.223,0,10.965-7.176,5.734-7.176,7.476-5.985,5.985-5.985,5.985l-5.255-6.949Z" transform="translate(-441.525 -246.048)"/><path class="s" d="M400.469,557.618c-12.078-5.123-9.4-17.639-7.122-23.941a32.6,32.6,0,0,1,1.6-3.735l6.775-4.112s1.383,3.525,2.861,8.254C408.011,545.085,411.955,562.5,400.469,557.618Z" transform="translate(-388.463 -344.779)"/><path class="s" d="M423.693,767.559a20.349,20.349,0,0,0-1.8,5.04,36.4,36.4,0,0,0-.778,8.577c.048,1.993.216,3.3.216,3.3l-13.455,9.253s.078-1.083.209-2.675c.347-4.238,1.071-12.1,1.754-13.12.473-.706.8-3.543,1.012-6.177s.293-4.944.293-4.944S427.338,760.742,423.693,767.559Z" transform="translate(-395.084 -440.526)"/><path class="s" d="M478.547,780.005s0,2.574-.1,5.566a57,57,0,0,1-.652,8.17,33.63,33.63,0,0,0-.305,6.835c.09,2.993.305,5.686.305,5.686s-13.736-12.988-12.336-14.018a6.364,6.364,0,0,0,1.089-2.855c.419-1.8.8-4.19,1.077-6.225.335-2.424.545-4.375.545-4.375Z" transform="translate(-418.161 -446.335)"/><path class="g" d="M425.709,767.559a20.349,20.349,0,0,0-1.8,5.04,109.965,109.965,0,0,1-11.013-.844c.2-2.574.293-4.944.293-4.944S429.354,760.742,425.709,767.559Z" transform="translate(-397.099 -440.526)"/><path class="g" d="M480.067,780.013s0,2.574-.1,5.566c-4.285,1.1-8.691-1.1-10.821-2.394.335-2.424.545-4.375.545-4.375Z" transform="translate(-419.682 -446.343)"/><path class="u" d="M482.15,532.26c-5.483,11.971-7.727,26.168-7.727,26.168L472.43,570.4s1,5.231,0,7.224-2.993,5.237-2.993,5.237,1.5,12.21,0,13.455,0,8.721,0,8.721l-4.986,25.138-6.979,32.392c-6.727,5.489-15.682-1.49-15.682-1.49l1.975-21.182s2.993-37.109,1.748-38.629.5-6.231.5-6.231,1.748-4.489.5-6.231.245-5.483.245-5.483-.5-15.2,1-18.692,0-25.073,0-25.073l-.6-6.721-.347-3.723-.03-.365s-.227,1.49-.6,3.8c-1.1,7.033-3.448,21.607-4.375,24.606a32.04,32.04,0,0,1-2.556,6.231s1.293,7.476,0,9.469a4.635,4.635,0,0,0-.2,4.238s1.245,6.231-2.5,8.721,0,3.741,0,3.741-2.741,5.985-3.735,8.469,0,5.985,0,5.985l-1.993,20.182s-1.748,8.469-1.5,14.2-2.244,18.938-2.244,18.938-19.189,0-22.146-2.245,4.938-24.139,4.938-24.139,2.245-38.378,1.742-39.371,0-8.475,1.748-9.966,0-4.489,0-4.489-.5-5.985,0-7.476-.078-6.482-.078-6.482-1.67-12.21-1.915-19.189-1.5-22.672-1.5-22.672,1.3-9.708,1.5-14.329a16.274,16.274,0,0,1,1.8-5.824,51.959,51.959,0,0,1,3.711-6.512s59.045-17.453,61.523-15.717c.658.461,1.616,3.591,2.562,8.122C483.61,499.7,486.184,523.461,482.15,532.26Z" transform="translate(-393.639 -325.897)"/><circle class="v" cx="17.196" cy="17.196" r="17.196" transform="translate(34.936 19.663)"/><path class="g" d="M486.942,487.053c-1.981,1.018-3.31,1.718-3.31,1.718s-27.909,13.21-35.846,12.461c-6.141-.6-21.816-.257-28.646-.09a51.959,51.959,0,0,1,3.711-6.512s59.051-17.447,61.529-15.711C485.038,479.391,486,482.51,486.942,487.053Z" transform="translate(-399.604 -325.897)"/><path class="t" d="M431.023,327.853s-15.927,2.514-19.686,4.98-11.2,7.23-11.2,17.447-1.742,20.685-2.741,23.672,15.7,27.161,15.7,27.161l-5.985,36.636s23.941-.748,31.914,0,35.87-12.461,35.87-12.461,16.448-8.721,19.937-8.978-6.979-19.189-6.979-19.189-16.2-30.645-13.461-35.63a68.862,68.862,0,0,0,4.752-12.21l-2.993-25.414a9.777,9.777,0,0,0-8.224,1.245c-3.741,2.741-16.448,1.245-16.448,1.245Z" transform="translate(-390.855 -263.533)"/><path class="g" d="M401.25,396.635,395,398.377l-1.73,23.45s2.244,6.231,0,8.224-2.741,44.609-2.741,44.609,7.23,5.231,15.7,1.245c0,0-1.245-4.734,2.5-21.93s3.735-25.916,3.735-25.916,0-21.433,1.748-24.923,0-12.21,0-12.21-3.489-4.734-3.244-6.476S401.25,396.635,401.25,396.635Z" transform="translate(-388.118 -287.958)"/><path class="g" d="M405.894,534.114a15.915,15.915,0,0,1-11.234-.407,32.6,32.6,0,0,1,1.6-3.735l6.775-4.112S404.44,529.385,405.894,534.114Z" transform="translate(-389.776 -344.791)"/><path class="t" d="M400.624,396.619l-6.231,1.742-1.742,23.45s2.244,6.231,0,8.224-2.741,44.609-2.741,44.609,7.236,5.225,15.7,1.221c0,0-1.245-4.734,2.49-21.93s3.741-25.916,3.741-25.916,0-21.433,1.742-24.923,0-12.21,0-12.21-3.489-4.734-3.238-6.476S400.624,396.619,400.624,396.619Z" transform="translate(-387.869 -287.943)"/><path class="g" d="M505.873,411.15S502.635,439.06,493.16,444.3C493.16,444.3,514.342,438.317,505.873,411.15Z" transform="translate(-429.321 -298.739)"/><path class="g" d="M434.88,415.32s11.707,5.728,8.978,9.714S434.88,415.32,434.88,415.32Z" transform="translate(-405.923 -300.413)"/><path class="g" d="M434.88,434.47s7.476,7.727,5.985,10.468S434.88,434.47,434.88,434.47Z" transform="translate(-405.923 -308.101)"/><path class="g" d="M535.63,327.47s2.933,4.98,3.214,8.224S535.63,327.47,535.63,327.47Z" transform="translate(-446.371 -265.144)"/><path class="g" d="M535.63,315.857s1.472-1.251,5.231,0S535.63,315.857,535.63,315.857Z" transform="translate(-446.371 -260.258)"/><path class="g" d="M497.025,556.007a34.654,34.654,0,0,1-18.225-2.334l-3.142,8.044-.347-3.723c.515-3.124,1.514-6.47,3.489-7.314C478.8,550.68,485.718,556.193,497.025,556.007Z" transform="translate(-422.155 -354.756)"/><path class="g" d="M426.18,577.07s15.328,3.178,19.626,2.616Z" transform="translate(-402.43 -365.35)"/><path class="g" d="M428.84,583.763s6.542-.281,9.81,1.029Z" transform="translate(-403.498 -368.027)"/><path class="g" d="M430.09,588.31a58.653,58.653,0,0,0,9.062,1.2Z" transform="translate(-404 -369.863)"/><path class="g" d="M429.46,644.4c.281-.186,13.084-3.178,14.676-1.029Z" transform="translate(-403.747 -391.658)"/><path class="g" d="M429.46,651.779s11.121-1.311,11.4,0S429.46,651.779,429.46,651.779Z" transform="translate(-403.747 -395.11)"/><path class="g" d="M429.46,656.792s11.869-2.454,13.269-1.855S429.46,656.792,429.46,656.792Z" transform="translate(-403.747 -396.574)"/><path class="g" d="M421.375,794.651,407.92,803.9s.078-1.083.21-2.675a36.273,36.273,0,0,1,6.889-11.246c3.035-.79,4.95-.06,6.141,1.371C421.207,793.34,421.375,794.651,421.375,794.651Z" transform="translate(-395.1 -450.698)"/><path class="u" d="M418.844,803.211a33.392,33.392,0,0,0-2.807,13.766,21.35,21.35,0,0,1-2.849,11.079,10.927,10.927,0,0,1-.946,1.353s-9.349-.078-12.623-2.789a3.238,3.238,0,0,1-.88-1.077c-1.873-3.735,3.645-18.034,3.645-18.034,2.9-11.025,8.78-16.914,8.78-16.914C421.645,787.883,418.844,803.211,418.844,803.211Z" transform="translate(-391.258 -450.945)"/><path class="g" d="M414.039,839.632a10.909,10.909,0,0,1-.946,1.353s-9.349-.078-12.623-2.789c1.61-5.327,6.745-21.445,9.152-18.7C411.884,822.065,413.458,834.448,414.039,839.632Z" transform="translate(-392.109 -462.55)"/><path class="u" d="M420.562,820.487l-.652,24.145h3.136s.509-21.182,1.909-24.145S420.562,820.487,420.562,820.487Z" transform="translate(-399.913 -462.546)"/><path class="g" d="M477.8,813.316s-13.736-12.988-12.336-14.018a6.364,6.364,0,0,0,1.089-2.855c2.64-.461,7.182.64,10.941,11.187C477.583,810.622,477.8,813.316,477.8,813.316Z" transform="translate(-418.161 -453.388)"/><path class="u" d="M477.494,828.055a1.4,1.4,0,0,1-.329.1,97.538,97.538,0,0,1-10.905,0,2.358,2.358,0,0,1-2.28-2.352c0-.9,0-1.993-.072-3.16-.156-3.687-.6-8.074-1.921-9.062-2.34-1.8-4.19-7.889,0-15.6,0,0,8.032-6.135,13.826,12.306,0,0,.563,5.261,3.082,7.128S478.619,827.523,477.494,828.055Z" transform="translate(-415.803 -453.643)"/><path class="g" d="M480.107,838.569a97.553,97.553,0,0,1-10.905,0,2.358,2.358,0,0,1-2.28-2.352c0-.9,0-1.993-.072-3.16,1.011-4.465,2.466-9.062,4.339-10.109C471.2,822.941,476.869,822.3,480.107,838.569Z" transform="translate(-418.758 -464.061)"/><path class="u" d="M423.46,799.432l1.508,20.093h1.915v-21.8Z" transform="translate(-376.26 -441.09)"/><path class="g" d="M450.3,239.109a34.368,34.368,0,0,0-15.334,4.926,6.372,6.372,0,0,0-2.891,2.9,9.622,9.622,0,0,0-.233,3.591c.162,10.307-11.33,18.106-10.971,28.406.144,4.088,2.2,7.895,2.574,11.971.628,6.8-3.394,13.054-7.248,18.686a15.478,15.478,0,0,0,10.923-3.621,82.831,82.831,0,0,1,1.526,41.748h5.512a4.189,4.189,0,0,1,1.61.2,4.046,4.046,0,0,1,1.275.952c5.153,5.129,8.607,12.713,6.638,19.716l11.731-4.4a34.849,34.849,0,0,0,8.1-3.86,11.7,11.7,0,0,0,5-7.212c.317-1.8.215-3.938,1.694-4.98a9.217,9.217,0,0,1,2.31-.856c3.22-1.137,4.645-4.86,5.3-8.212a47.284,47.284,0,0,0,.748-12.491c-.521-7-2.592-14.113-.886-20.949.964-3.837,3.106-7.41,3.28-11.372.281-6.53-4.824-12.156-5.584-18.65-.533-4.525,1.1-9.1.569-13.629a14.64,14.64,0,0,0-7.7-11.115c-1.442-.742-2.993-1.239-4.417-2.059-3.25-1.885-5.327-5.279-8.278-7.613s-7.865-3.214-10.085-.18Z" transform="translate(-398.424 -229.651)"/><path class="w" d="M450.3,237.851a34.368,34.368,0,0,0-15.334,4.926,6.372,6.372,0,0,0-2.891,2.9,9.622,9.622,0,0,0-.233,3.591c.162,10.307-11.33,18.106-10.971,28.412.144,4.082,2.2,7.889,2.574,11.971.628,6.8-3.394,13.054-7.248,18.692a15.562,15.562,0,0,0,10.923-3.621,82.8,82.8,0,0,1,1.526,41.736h5.513a4.19,4.19,0,0,1,1.61.2,3.939,3.939,0,0,1,1.275.946c5.153,5.135,8.607,12.713,6.638,19.716l11.731-4.4a34.847,34.847,0,0,0,8.1-3.861,11.7,11.7,0,0,0,5-7.212c.317-1.8.215-3.938,1.694-4.98a9.218,9.218,0,0,1,2.31-.856c3.22-1.137,4.645-4.86,5.3-8.212a47.284,47.284,0,0,0,.766-12.5c-.521-7-2.592-14.113-.886-20.949.964-3.837,3.106-7.41,3.28-11.372.281-6.53-4.824-12.156-5.584-18.65-.533-4.525,1.1-9.1.569-13.629a14.652,14.652,0,0,0-7.7-11.115c-1.442-.742-2.993-1.239-4.417-2.053-3.25-1.891-5.327-5.285-8.278-7.619s-7.865-3.214-10.085-.18Z" transform="translate(-398.424 -229.141)"/><g class="x" transform="translate(17.776 17.64)"><path d="M442.3,252.81a6.645,6.645,0,0,0-.036.694C442.278,253.277,442.29,253.043,442.3,252.81Z" transform="translate(-426.662 -252.81)"/><path d="M514.966,286.457c.215-3.172.922-6.356.658-9.517C515.427,280.112,514.72,283.3,514.966,286.457Z" transform="translate(-455.831 -262.497)"/><path d="M426.579,311.887c-.347-3.711-2.077-7.182-2.484-10.887a13.646,13.646,0,0,0-.09,2.047c.144,4.04,2.149,7.817,2.556,11.839A16.157,16.157,0,0,0,426.579,311.887Z" transform="translate(-419.331 -272.157)"/><path d="M518.562,336.871a25.667,25.667,0,0,0-.6,7.434,22.54,22.54,0,0,1,.6-4.315c.964-3.837,3.106-7.41,3.28-11.372a12.328,12.328,0,0,0-.1-2.107C521.279,330.071,519.418,333.387,518.562,336.871Z" transform="translate(-457.033 -282.398)"/><path d="M427.123,344.36a15.562,15.562,0,0,1-8.834,3.591c-.682,1.065-1.389,2.107-2.089,3.136a15.562,15.562,0,0,0,10.923-3.621,82.6,82.6,0,0,1,3.483,22.415A82.783,82.783,0,0,0,427.123,344.36Z" transform="translate(-416.2 -289.565)"/><path d="M496.29,394.616c-.658,3.352-2.083,7.075-5.3,8.206a8.98,8.98,0,0,0-2.31.862c-1.478,1.041-1.377,3.2-1.694,4.98a11.545,11.545,0,0,1-5,7.182,35.985,35.985,0,0,1-8.1,3.867l-11.193,4.19a15.447,15.447,0,0,1-.539,3.322l11.731-4.4a34.847,34.847,0,0,0,8.1-3.861,11.694,11.694,0,0,0,5-7.212c.317-1.8.215-3.938,1.694-4.98a9.216,9.216,0,0,1,2.31-.856c3.22-1.137,4.645-4.86,5.3-8.212a46.935,46.935,0,0,0,.844-10.594A46.864,46.864,0,0,1,496.29,394.616Z" transform="translate(-434.648 -306.727)"/><path d="M445.443,415.219a3.957,3.957,0,0,0-1.275-.952,4.28,4.28,0,0,0-1.61-.2h-4.89c-.192,1.041-.4,2.083-.6,3.118h5.512a4.19,4.19,0,0,1,1.61.2,3.939,3.939,0,0,1,1.275.946c3.771,3.759,6.626,8.822,7.117,14.018C453.188,426.136,449.968,419.744,445.443,415.219Z" transform="translate(-424.579 -317.545)"/></g><path class="g" d="M405.37,449.523s4.453-1.867,5.447,0S405.37,449.523,405.37,449.523Z" transform="translate(-394.076 -313.811)"/><path class="g" d="M408,454.873s4.453-1.867,5.453,0S408,454.873,408,454.873Z" transform="translate(-395.132 -315.959)"/></g><g transform="translate(429.429 5.159)"><path class="h" d="M855.489,51.66S832.715,50.29,835.4,66.246a3.892,3.892,0,0,0,2.023,4.1s.042-1.2,2.334-.784a10.481,10.481,0,0,0,2.472.12,5.129,5.129,0,0,0,3.017-1.251h0s6.4-2.64,8.888-13.1c0,0,1.843-2.286,1.8-2.873L852.089,54.1s1.311,2.771.275,5.076c0,0-.12-4.98-.862-4.86-.15,0-1.993.958-1.993.958s2.256,4.83.551,8.344c0,0,.646-5.949-1.257-7.99l-2.717,1.61s2.64,4.986.85,9.056c0,0,.461-6.243-1.419-8.673l-2.454,1.909s2.484,4.89.988,8.266c0,0-.2-7.272-1.5-7.817a14.806,14.806,0,0,0-2.466,2.669s1.694,3.591.641,5.447c0,0-.646-4.836-1.2-4.86,0,0-2.137,3.208-2.358,5.387a11.677,11.677,0,0,1,1.838-5.716,6.386,6.386,0,0,0-3.268,1.7s.329-2.268,3.795-2.472a14.932,14.932,0,0,1,2.238-2.58,14.034,14.034,0,0,0-5.536.64s1.838-2.143,6.171-1.2l2.394-1.975s-4.537-.6-6.464.066c0,0,2.215-1.891,7.117-.515L848.085,55a23.646,23.646,0,0,0-6.171-.533s2.43-1.311,6.943.108l1.885-.844s-2.837-.557-3.663-.646-.874-.317-.874-.317a9.792,9.792,0,0,1,5.321.6S855.555,51.912,855.489,51.66Z" transform="translate(-789.802 -38.72)"/><path class="h" d="M807.316,30.06s-19.153,12.4-7.536,23.654a3.9,3.9,0,0,0,4.058,2.107s-.67-.982,1.419-2.017a10.39,10.39,0,0,0,2.065-1.371,5.153,5.153,0,0,0,1.694-2.8h0s3.591-5.925-.6-15.825c0,0,.132-2.933-.275-3.364l-2.119,3.591s2.7,1.454,3.232,3.92c0,0-3.047-3.932-3.591-3.4-.108.108-1.041,1.957-1.041,1.957s4.686,2.55,5.387,6.386c0,0-2.993-5.177-5.752-5.686l-1.245,2.873s5.088,2.454,6.057,6.793c0,0-3.334-5.3-6.285-6.147l-.838,2.993s4.908,2.49,5.692,6.105c0,0-4.465-5.734-5.842-5.387a15.169,15.169,0,0,0-.407,3.591s3.484,1.867,3.747,4.01c0,0-3.388-3.513-3.825-3.22,0,0,.18,3.849,1.3,5.752a11.689,11.689,0,0,1-1.9-5.692,6.4,6.4,0,0,0-1.628,3.3s-1.077-2.023,1.6-4.238a16.384,16.384,0,0,1,.269-3.406,13.854,13.854,0,0,0-4.082,3.795s.215-2.813,4.279-4.6l.778-3.023s-4.022,2.191-5.165,3.884c0,0,.664-2.837,5.423-4.633l1.2-2.831a24.356,24.356,0,0,0-5.291,3.232s1.2-2.5,5.662-4.028l1.017-1.8s-2.616,1.233-3.334,1.652-.892.263-.892.263a9.81,9.81,0,0,1,4.639-2.675S807.52,30.228,807.316,30.06Z" transform="translate(-774.087 -30.06)"/><path class="h" d="M763.443,54.154s-11.45,19.752,4.01,24.5a3.86,3.86,0,0,0,4.573,0s-1.035-.563.353-2.436a10.481,10.481,0,0,0,1.2-2.155,5.171,5.171,0,0,0,.245-3.262h0s.509-6.907-7.721-13.832c0,0-1.2-2.669-1.8-2.867l-.257,4.19s3.065.072,4.663,2.029c0,0-4.5-2.125-4.728-1.413-.048.144-.042,2.215-.042,2.215s5.381.162,7.775,3.262c0,0-5.028-3.25-7.7-2.46l.192,3.124s5.644-.12,8.475,3.31c0,0-5.387-3.214-8.379-2.628l.6,3.047s5.506,0,7.841,2.861c0,0-6.584-3.088-7.655-2.173a14.793,14.793,0,0,0,1.275,3.406s3.95.084,5.159,1.873c0,0-4.615-1.6-4.872-1.131,0,0,1.909,3.346,3.771,4.531a11.689,11.689,0,0,1-4.28-4.19,6.411,6.411,0,0,0,.048,3.681s-1.879-1.311-.5-4.5a15.037,15.037,0,0,1-1.3-3.154,14.221,14.221,0,0,0-1.915,5.231s-1.089-2.6,1.724-6.033l-.676-3.053s-2.592,3.777-2.843,5.806c0,0-.694-2.831,2.735-6.584l-.227-3.058a23.893,23.893,0,0,0-3.244,5.279s-.084-2.765,3.214-6.159l.09-2.065s-1.8,2.28-2.221,2.993-.676.61-.676.61a9.852,9.852,0,0,1,2.921-4.495S763.694,54.208,763.443,54.154Z" transform="translate(-759.362 -39.711)"/></g></g></g></svg>